<svg width="64" height="64" viewBox="0 0 64 64" fill="none" xmlns="http://www.w3.org/2000/svg">
<path d="M38.3481 20.8264L38.7195 20.4662L38.3468 20.1073L35.7842 17.6398L35.4361 17.3047L35.0893 17.6411L20.6519 31.6411L20.2818 32L20.6519 32.3589L35.0893 46.3589L35.4374 46.6965L35.7854 46.3589L38.33 43.8914L38.6999 43.5328L38.3303 43.1738L26.8252 32.0003L38.3481 20.8264ZM63.5 32C63.5 49.397 49.397 63.5 32 63.5C14.603 63.5 0.5 49.397 0.5 32C0.5 14.603 14.603 0.5 32 0.5C49.397 0.5 63.5 14.603 63.5 32Z" fill="white" stroke="white"/>
</svg>
