<svg width="64" height="64" viewBox="0 0 64 64" fill="none" xmlns="http://www.w3.org/2000/svg">
<path d="M25.6532 20.1073L25.2805 20.4662L25.6519 20.8264L37.1748 32.0003L25.6697 43.1738L25.3001 43.5328L25.67 43.8914L28.2146 46.3589L28.5626 46.6965L28.9107 46.3589L43.3481 32.3589L43.7182 32L43.3481 31.6411L28.9107 17.6411L28.5639 17.3047L28.2158 17.6398L25.6532 20.1073ZM32 63.5C14.603 63.5 0.5 49.397 0.5 32C0.5 14.603 14.603 0.5 32 0.5C49.397 0.5 63.5 14.603 63.5 32C63.5 49.397 49.397 63.5 32 63.5Z" fill="white" stroke="white"/>
</svg>
