<svg width="24" height="24" viewBox="0 0 24 24" fill="none" xmlns="http://www.w3.org/2000/svg">
<path d="M15.744 20.736C15.664 20.672 15.584 20.6 15.504 20.52C15.328 20.36 15.192 20.232 15.096 20.136C15 20.04 14.92 19.936 14.856 19.824L14.808 19.68L14.616 17.76H9.576L9.408 19.68L9.336 19.848C9.272 19.976 9.192 20.088 9.096 20.184L8.4 20.832C8.352 20.896 8.336 20.952 8.352 21C8.384 21.064 8.48 21.104 8.64 21.12C8.816 21.152 9.2 21.176 9.792 21.192C10.432 21.224 11.024 21.24 11.568 21.24H12.648C13.208 21.24 13.8 21.224 14.424 21.192C15 21.176 15.368 21.152 15.528 21.12C15.704 21.088 15.808 21.04 15.84 20.976C15.872 20.928 15.864 20.872 15.816 20.808L15.744 20.736ZM23.496 2.76001H0.696C0.52 2.76001 0.36 2.81601 0.216 2.92801C0.072 3.04001 0 3.16801 0 3.31201V16.704C0 16.88 0.072 17.048 0.216 17.208C0.376 17.352 0.536 17.424 0.696 17.424H23.496C23.656 17.424 23.776 17.352 23.856 17.208C23.952 17.064 24 16.896 24 16.704V3.31201C24 3.15201 23.952 3.02401 23.856 2.92801C23.776 2.81601 23.656 2.76001 23.496 2.76001ZM23.016 16.344H0.912V3.81601H23.016V16.344Z" fill="black"/>
</svg>
