<svg width="24" height="24" viewBox="0 0 24 24" fill="none" xmlns="http://www.w3.org/2000/svg">
<path d="M16.5361 1.5C15.8961 1.5 15.3441 1.716 14.8801 2.148C14.4161 2.58 14.1601 3.116 14.1121 3.756L13.4641 12.78C13.4481 12.972 13.4721 13.164 13.5361 13.356C13.6161 13.548 13.7201 13.716 13.8481 13.86C14.1201 14.164 14.4641 14.316 14.8801 14.316H14.9281L14.7121 21.372C14.6961 21.676 14.8001 21.948 15.0241 22.188C15.2161 22.396 15.4801 22.5 15.8161 22.5H16.7521C17.0561 22.5 17.3201 22.388 17.5441 22.164C17.7681 21.956 17.8801 21.7 17.8801 21.396V2.844C17.8801 2.476 17.7441 2.164 17.4721 1.908C17.2161 1.636 16.9041 1.5 16.5361 1.5ZM11.2081 1.524H11.1121C11.0001 1.524 10.9041 1.564 10.8241 1.644C10.7441 1.708 10.7041 1.804 10.7041 1.932V5.892C10.7041 6.068 10.6401 6.22 10.5121 6.348C10.3841 6.476 10.2321 6.54 10.0561 6.54H9.96012C9.78412 6.54 9.63212 6.476 9.50412 6.348C9.37612 6.22 9.31212 6.068 9.31212 5.892V1.908C9.31212 1.796 9.27212 1.708 9.19212 1.644C9.11212 1.564 9.01612 1.524 8.90412 1.524H8.83212C8.72012 1.524 8.62412 1.564 8.54412 1.644C8.46412 1.708 8.42412 1.796 8.42412 1.908V5.892C8.42412 6.068 8.36012 6.22 8.23212 6.348C8.10412 6.476 7.95212 6.54 7.77612 6.54H7.68012C7.50412 6.54 7.35212 6.476 7.22412 6.348C7.11212 6.22 7.05612 6.068 7.05612 5.892V1.908C7.05612 1.796 7.01612 1.708 6.93612 1.644C6.85612 1.564 6.75212 1.524 6.62412 1.524H6.55212C6.42412 1.524 6.32012 1.564 6.24012 1.644C6.16012 1.708 6.12012 1.796 6.12012 1.908V7.932C6.12012 8.3 6.24812 8.612 6.50412 8.868C6.77612 9.124 7.09612 9.252 7.46412 9.252H7.65612L7.27212 21.372C7.25612 21.676 7.35212 21.94 7.56012 22.164C7.78412 22.388 8.05612 22.5 8.37612 22.5H9.26412C9.60012 22.5 9.87212 22.396 10.0801 22.188C10.2881 21.98 10.3921 21.708 10.3921 21.372L10.0081 9.252H10.2721C10.6401 9.252 10.9521 9.124 11.2081 8.868C11.4641 8.612 11.5921 8.3 11.5921 7.932V1.908C11.5921 1.796 11.5521 1.708 11.4721 1.644C11.4081 1.564 11.3201 1.524 11.2081 1.524Z" fill="black"/>
</svg>
