<svg width="24" height="24" viewBox="0 0 24 24" fill="none" xmlns="http://www.w3.org/2000/svg">
<path d="M11.3906 9.80185V11.3438H18.4219V9.80185C18.4231 9.57357 18.3791 9.34731 18.2924 9.13611C18.2058 8.92491 18.0782 8.73294 17.9171 8.57126C17.7559 8.40958 17.5644 8.28139 17.3534 8.19407C17.1425 8.10676 16.9164 8.06204 16.6881 8.0625H13.1507C12.1867 8.0625 11.3906 8.83786 11.3906 9.80185Z" fill="black"/>
<path d="M19.6406 12H10.2188V13.7344H19.6406V12Z" fill="black"/>
<path d="M5.39062 6.82501C5.39063 5.63154 5.86473 4.48695 6.70864 3.64303C7.55256 2.79912 8.69715 2.32501 9.89062 2.32501C11.0841 2.32501 12.2287 2.79912 13.0726 3.64303C13.9165 4.48695 14.3906 5.63154 14.3906 6.82501V7.40626H15.4219V6.82501C15.4219 5.35803 14.8391 3.95114 13.8018 2.91383C12.7645 1.87652 11.3576 1.29376 9.89062 1.29376C8.42365 1.29376 7.01675 1.87652 5.97944 2.91383C4.94213 3.95114 4.35938 5.35803 4.35938 6.82501V22.6875H5.39062V6.82501ZM14.5781 15.5156V17.25C14.5781 17.337 14.6127 17.4205 14.6742 17.482C14.7358 17.5436 14.8192 17.5781 14.9062 17.5781C14.9933 17.5781 15.0767 17.5436 15.1383 17.482C15.1998 17.4205 15.2344 17.337 15.2344 17.25V15.5156C15.2344 15.4286 15.1998 15.3452 15.1383 15.2836C15.0767 15.2221 14.9933 15.1875 14.9062 15.1875C14.8192 15.1875 14.7358 15.2221 14.6742 15.2836C14.6127 15.3452 14.5781 15.4286 14.5781 15.5156V15.5156ZM18.3281 15.5156V17.25C18.3281 17.337 18.3627 17.4205 18.4242 17.482C18.4858 17.5436 18.5692 17.5781 18.6562 17.5781C18.7433 17.5781 18.8267 17.5436 18.8883 17.482C18.9498 17.4205 18.9844 17.337 18.9844 17.25V15.5156C18.9844 15.4286 18.9498 15.3452 18.8883 15.2836C18.8267 15.2221 18.7433 15.1875 18.6562 15.1875C18.5692 15.1875 18.4858 15.2221 18.4242 15.2836C18.3627 15.3452 18.3281 15.4286 18.3281 15.5156V15.5156ZM10.8281 15.5156V17.25C10.8281 17.337 10.8627 17.4205 10.9242 17.482C10.9858 17.5436 11.0692 17.5781 11.1562 17.5781C11.2433 17.5781 11.3267 17.5436 11.3883 17.482C11.4498 17.4205 11.4844 17.337 11.4844 17.25V15.5156C11.4844 15.4286 11.4498 15.3452 11.3883 15.2836C11.3267 15.2221 11.2433 15.1875 11.1562 15.1875C11.0692 15.1875 10.9858 15.2221 10.9242 15.2836C10.8627 15.3452 10.8281 15.4286 10.8281 15.5156V15.5156ZM17.1094 19.125V17.3906C17.1094 17.3036 17.0748 17.2202 17.0133 17.1586C16.9517 17.0971 16.8683 17.0625 16.7812 17.0625C16.6942 17.0625 16.6108 17.0971 16.5492 17.1586C16.4877 17.2202 16.4531 17.3036 16.4531 17.3906V19.125C16.4531 19.212 16.4877 19.2955 16.5492 19.357C16.6108 19.4186 16.6942 19.4531 16.7812 19.4531C16.8683 19.4531 16.9517 19.4186 17.0133 19.357C17.0748 19.2955 17.1094 19.212 17.1094 19.125V19.125ZM12.7031 17.3906V19.125C12.7031 19.212 12.7377 19.2955 12.7992 19.357C12.8608 19.4186 12.9442 19.4531 13.0312 19.4531C13.1183 19.4531 13.2017 19.4186 13.2633 19.357C13.3248 19.2955 13.3594 19.212 13.3594 19.125V17.3906C13.3594 17.3036 13.3248 17.2202 13.2633 17.1586C13.2017 17.0971 13.1183 17.0625 13.0312 17.0625C12.9442 17.0625 12.8608 17.0971 12.7992 17.1586C12.7377 17.2202 12.7031 17.3036 12.7031 17.3906V17.3906Z" fill="black"/>
</svg>
