<svg width="24" height="24" viewBox="0 0 24 24" fill="none" xmlns="http://www.w3.org/2000/svg">
<path d="M6.83984 21.204H17.1598V22.5H6.83984V21.204ZM8.63984 18.636C9.23184 19.26 9.80784 19.668 10.3678 19.86C10.5118 19.908 10.6478 19.932 10.7758 19.932H12.8638C12.9598 19.932 13.1358 19.828 13.3918 19.62C13.6638 19.412 13.9278 19.164 14.1838 18.876L15.1438 17.796C15.3998 17.508 15.6398 17.164 15.8638 16.764C16.0238 16.444 16.1998 16.052 16.3918 15.588C17.2718 13.22 17.3918 10.868 16.7518 8.532C16.5278 7.716 16.2318 6.996 15.8638 6.372C15.4638 5.7 15.0078 5.172 14.4958 4.788L14.5198 5.052C14.5518 5.356 14.5758 5.532 14.5918 5.58C14.8478 6.268 14.9678 6.852 14.9518 7.332C14.9038 8.004 14.6718 8.556 14.2558 8.988C14.0958 9.148 13.9358 9.212 13.7758 9.18C13.6158 9.148 13.4798 9.036 13.3678 8.844C13.3198 8.764 13.2798 8.668 13.2478 8.556L13.1998 8.196C13.1518 7.828 13.1198 7.556 13.1038 7.38C13.0238 6.1 12.7678 4.988 12.3358 4.044C11.7598 2.828 10.8958 2.02 9.74384 1.62C9.23184 1.46 8.77584 1.46 8.37584 1.62L8.49584 1.692C9.27984 2.348 9.72784 3.124 9.83984 4.02C9.95184 4.692 9.85584 5.42 9.55184 6.204C9.27984 6.908 8.83984 7.948 8.23184 9.324C7.62384 10.604 7.22384 11.708 7.03184 12.636C6.82384 13.692 6.79984 14.636 6.95984 15.468C7.19984 16.7 7.75984 17.756 8.63984 18.636Z" fill="black"/>
</svg>
