<svg width="24" height="24" viewBox="0 0 24 24" fill="none" xmlns="http://www.w3.org/2000/svg">
<path d="M9.4725 20.265H3.105C1.39252 20.265 0 18.8725 0 17.16C0 15.45 1.39252 14.06 3.105 14.06H9.5475C8.47753 14.67 7.74 15.785 7.7025 17.0525C7.66083 18.4212 8.38547 19.6268 9.4725 20.265Z" fill="black"/>
<path d="M11.4296 18.3037C10.7656 18.3037 10.2142 17.767 10.2142 17.0852C10.2163 16.3897 10.8157 15.8725 11.4847 15.8725H21.5727C21.7107 15.8725 21.8227 15.9843 21.8227 16.1225C21.8227 16.2607 21.7107 16.3725 21.5727 16.3725H11.4847C11.0825 16.3725 10.7141 16.6706 10.7141 17.0888C10.7144 17.4904 11.042 17.8036 11.4297 17.8036H23.2372C23.7009 17.4145 24.0001 16.8322 24.0001 16.18C24.0001 15.01 23.0476 14.06 21.8776 14.06H11.4251C9.69759 14.06 8.25258 15.4075 8.20256 17.0675C8.15072 18.8254 9.55762 20.265 11.3051 20.265H22.7676C23.4476 20.265 24 19.7125 24 19.035C24 18.7609 23.9096 18.5082 23.758 18.3036H11.4296V18.3037ZM21.8101 10.985C21.8101 12.405 20.6576 13.56 19.2376 13.56H14.2451C15.1063 12.9973 15.6682 12.0099 15.6351 10.8925C15.6051 9.85999 15.0326 8.95001 14.1901 8.41498H19.2376C20.6576 8.41498 21.8101 9.56749 21.8101 10.985Z" fill="black"/>
<path d="M12.4675 8.415H3.95998C2.98245 8.415 2.1875 9.21 2.1875 10.19C2.1875 10.6904 2.39769 11.1407 2.73181 11.4629H12.4626C12.7535 11.4629 12.9983 11.2273 12.9983 10.9277C12.9983 10.6137 12.7204 10.3913 12.4178 10.3913H4.20847C4.07042 10.3913 3.95848 10.2795 3.95848 10.1413C3.95848 10.0031 4.07042 9.89133 4.20847 9.89133H12.4178C12.9919 9.89133 13.4982 10.3387 13.4982 10.9248C13.4984 11.5051 13.0286 11.9629 12.4626 11.9629H2.34505C2.24638 12.1227 2.1875 12.3095 2.1875 12.51C2.1875 13.0875 2.65752 13.56 3.23502 13.56H12.565C14.0017 13.56 15.1769 12.3788 15.135 10.9075C15.095 9.5325 13.8975 8.415 12.4675 8.415ZM10.0175 7.91503H6.26C5.10748 7.91503 4.1675 6.97753 4.1675 5.82253C4.1675 4.67255 5.10748 3.73505 6.26 3.73505H10.065C9.4175 4.19255 8.98498 4.92253 8.96 5.74753C8.93811 6.63586 9.34841 7.42036 10.0175 7.91503Z" fill="black"/>
<path d="M11.6315 6.64986C11.1527 6.64986 10.7589 6.26263 10.7586 5.77583C10.7566 5.28809 11.1792 4.904 11.6669 4.904H18.1754C18.3134 4.904 18.4254 5.0158 18.4254 5.15399C18.4254 5.29217 18.3134 5.40397 18.1754 5.40397H11.6669C11.454 5.40397 11.2585 5.55805 11.2585 5.77728C11.2585 5.98152 11.4237 6.14985 11.6315 6.14985H19.4708C19.6945 5.89297 19.8298 5.55894 19.8298 5.19247C19.8298 4.38749 19.1748 3.73499 18.3723 3.73499H11.6272C10.4672 3.73499 9.49476 4.64244 9.45974 5.75999C9.42806 6.96884 10.3927 7.91497 11.5498 7.91497H18.9472C19.4347 7.91497 19.8298 7.51995 19.8298 7.03245C19.8298 6.89511 19.7969 6.76578 19.7408 6.64981H11.6315V6.64986Z" fill="black"/>
</svg>
