<svg width="24" height="24" viewBox="0 0 24 24" fill="none" xmlns="http://www.w3.org/2000/svg">
<path d="M19.5597 11.69V10.514C19.5597 10.418 19.5277 10.338 19.4637 10.274C19.3997 10.21 19.3197 10.178 19.2237 10.178H4.77572C4.67972 10.178 4.59972 10.21 4.53572 10.274C4.47172 10.338 4.43972 10.418 4.43972 10.514V11.69C4.43972 11.786 4.47172 11.866 4.53572 11.93C4.59972 11.994 4.67972 12.026 4.77572 12.026H8.87972V12.746H10.3437V18.29H8.87972V19.01H15.1437V18.29H13.6557V12.746H15.1437V12.026H19.2237C19.3197 12.026 19.3997 11.994 19.4637 11.93C19.5277 11.866 19.5597 11.786 19.5597 11.69ZM2.54372 14.594L2.15972 8.71399H1.51172V19.01H2.15972L2.35172 16.802H5.63972L5.90372 19.01H6.28772V14.594H2.54372ZM5.59172 16.442H2.39972L2.47172 15.698H5.49572L5.59172 16.442ZM21.7437 8.71399L21.3837 14.594H17.3517V19.01H17.9997L18.2637 16.802H21.5517L21.7437 19.01H22.4877V8.71399H21.7437ZM18.3117 16.442L18.4077 15.698H21.4557L21.5037 16.442H18.3117ZM16.0557 8.92999H15.3597C15.2957 7.98599 14.9917 7.24999 14.4477 6.72199C13.9517 6.24199 13.2317 5.92999 12.2877 5.78599C12.4797 5.51399 12.4797 5.28999 12.2877 5.11399C12.2077 5.03399 12.1117 4.99399 11.9997 4.99399C11.9037 4.97799 11.8157 5.00999 11.7357 5.08999C11.5437 5.23399 11.5357 5.47399 11.7117 5.80999C10.8157 5.88999 10.0877 6.20999 9.52772 6.76999C8.93572 7.34599 8.64772 8.06599 8.66372 8.92999H7.94372V9.45799H16.0557V8.92999ZM9.79172 8.61799H9.16772C9.15172 8.18599 9.25572 7.78599 9.47972 7.41799C9.70372 7.03399 10.0157 6.72199 10.4157 6.48199C10.8157 6.24199 11.2637 6.10599 11.7597 6.07399C11.1837 6.34599 10.7517 6.59399 10.4637 6.81799C10.1917 7.02599 10.0077 7.26599 9.91172 7.53799C9.81572 7.80999 9.77572 8.16999 9.79172 8.61799Z" fill="black"/>
</svg>
