<svg width="24" height="24" viewBox="0 0 24 24" fill="none" xmlns="http://www.w3.org/2000/svg">
<path d="M10.872 0.0479994C9.496 0.176 8.192 0.52 6.96 1.08C5.664 1.688 4.512 2.496 3.504 3.504C2.496 4.512 1.696 5.664 1.104 6.96C0.528 8.192 0.176 9.496 0.048 10.872C1.552 11.048 3.04 11.504 4.512 12.24C6.032 13.008 7.424 14.032 8.688 15.312C9.968 16.576 10.992 17.968 11.76 19.488C12.496 20.976 12.952 22.464 13.128 23.952C14.504 23.824 15.808 23.472 17.04 22.896C18.336 22.304 19.488 21.504 20.496 20.496C21.504 19.488 22.312 18.336 22.92 17.04C23.48 15.808 23.824 14.504 23.952 13.128C22.464 12.952 20.976 12.496 19.488 11.76C17.968 10.992 16.568 9.976 15.288 8.712C14.024 7.432 13.008 6.032 12.24 4.512C11.504 3.04 11.048 1.552 10.872 0.0479994ZM24 11.64C23.952 10.136 23.64 8.696 23.064 7.32C22.456 5.88 21.6 4.608 20.496 3.504C19.392 2.4 18.12 1.544 16.68 0.935999C15.304 0.359999 13.864 0.0479994 12.36 0C12.536 1.312 12.96 2.616 13.632 3.912C14.32 5.272 15.224 6.52 16.344 7.656C17.48 8.776 18.728 9.68 20.088 10.368C21.384 11.04 22.688 11.464 24 11.64ZM0 12.36C0.048 13.864 0.36 15.304 0.936 16.68C1.544 18.12 2.4 19.392 3.504 20.496C4.608 21.6 5.88 22.456 7.32 23.064C8.696 23.64 10.136 23.952 11.64 24C11.464 22.688 11.04 21.376 10.368 20.064C9.68 18.72 8.768 17.488 7.632 16.368C6.512 15.232 5.28 14.32 3.936 13.632C2.624 12.96 1.312 12.536 0 12.36Z" fill="black"/>
</svg>
