<svg width="24" height="24" viewBox="0 0 24 24" fill="none" xmlns="http://www.w3.org/2000/svg">
<path d="M22.8263 14.0475C22.935 13.62 22.9837 13.2075 22.9725 12.8175V12.7913C22.9237 11.3925 22.1287 10.23 20.5837 9.31878C20.5598 9.30593 20.5333 9.29829 20.5062 9.29635C20.4791 9.29441 20.4518 9.29822 20.4263 9.30753C20.3738 9.32628 20.3325 9.36753 20.3137 9.42003C20.3062 9.43503 19.77 10.815 15.8287 10.7363C15.4913 10.7288 15.1763 10.7813 14.8875 10.875L15.51 2.31753C15.5119 2.29253 15.5082 2.26743 15.4991 2.24406C15.49 2.2207 15.4758 2.19967 15.4575 2.18253C15.441 2.16399 15.4208 2.14909 15.3982 2.13876C15.3756 2.12844 15.3511 2.12291 15.3263 2.12253H8.055C8.0025 2.12253 7.95375 2.14503 7.92 2.18253C7.88625 2.22003 7.8675 2.27253 7.87125 2.31753L8.2575 7.65378C8.01 7.50378 7.74375 7.37628 7.4625 7.28253V4.99128C7.4625 4.94254 7.44314 4.8958 7.40868 4.86134C7.37422 4.82689 7.32748 4.80753 7.27875 4.80753H6.435V3.25128C6.55125 3.19878 6.66 3.13878 6.76125 3.06753C6.81 3.03378 6.84 2.97753 6.84 2.92128V1.94628C6.83994 1.91232 6.83053 1.87903 6.8128 1.85007C6.79507 1.8211 6.7697 1.79758 6.73949 1.78209C6.70927 1.76659 6.67537 1.75972 6.6415 1.76222C6.60763 1.76472 6.57511 1.77651 6.5475 1.79628C6.28875 1.98003 5.955 2.10003 5.56125 2.15253C5.2425 2.19753 4.8975 2.17878 4.44 2.10003C2.6925 1.79253 1.03875 2.29503 0.40875 2.52378C0.165 2.61003 0 2.85753 0 3.13503C0 3.35253 0.10125 3.55128 0.26625 3.67503C0.339409 3.7296 0.424712 3.76561 0.514844 3.77998C0.604977 3.79435 0.697249 3.78664 0.78375 3.75753C1.41375 3.55503 2.59875 3.25503 3.88875 3.37503V4.80378H3.04125C2.99252 4.80378 2.94578 4.82314 2.91132 4.85759C2.87686 4.89205 2.8575 4.93879 2.8575 4.98753V7.27503C1.2675 7.81503 0.16875 9.33002 0.16875 11.0213V21.0413C0.16875 21.7013 0.705 22.2413 1.36125 22.2413H8.9625C9.45 22.2413 9.88875 21.93 10.065 21.4875C10.1363 21.4988 10.2037 21.51 10.275 21.51H22.5938C23.37 21.51 24 20.88 24 20.1038V15.4313C24 14.7338 23.49 14.1563 22.8263 14.0475ZM15.8212 11.1038C19.2225 11.1713 20.2612 10.1775 20.5575 9.73878C21.8212 10.5263 22.4925 11.4788 22.5938 12.6188H13.7625C13.8375 12.0788 14.115 11.6813 14.6175 11.3888C14.9587 11.19 15.3712 11.0963 15.8212 11.1038ZM22.605 12.9863C22.5975 13.3163 22.545 13.6613 22.4513 14.0213H13.9313C13.8113 13.6388 13.755 13.2938 13.7438 12.9863H22.605ZM14.505 11.0325C14.4825 11.0438 14.4563 11.055 14.4338 11.0663C13.77 11.4488 13.4175 12.0113 13.3762 12.765C13.3725 12.7763 13.3688 12.7913 13.3688 12.8025C13.3688 12.8175 13.3725 12.8325 13.3762 12.8475C13.3687 13.2038 13.4288 13.605 13.5525 14.0475C12.8888 14.16 12.3825 14.7338 12.3825 15.4313V17.0588H9.31125L8.93625 11.88V11.865L8.655 8.00253V7.99127L8.35875 3.91878H15.0225L14.505 11.0325ZM12.3825 17.43V19.9238H9.3225V17.43H12.3825ZM8.2575 2.49003H15.1275L15.0487 3.55128H8.3325L8.2575 2.49003ZM0.6675 3.40503C0.63676 3.41547 0.603922 3.4182 0.571879 3.41297C0.539836 3.40774 0.509571 3.39471 0.48375 3.37503C0.446783 3.34706 0.416974 3.31072 0.396766 3.269C0.376559 3.22729 0.366529 3.18137 0.3675 3.13503C0.3675 3.01503 0.435 2.90628 0.5325 2.86878C1.00125 2.69628 2.07 2.36628 3.3 2.36628C3.64875 2.36628 4.005 2.39253 4.3725 2.45628C4.87125 2.54628 5.25 2.56128 5.60625 2.51628C5.9325 2.47128 6.2175 2.39253 6.465 2.26503V2.82003C6.2175 2.97378 5.91375 3.07878 5.5575 3.12378C5.23875 3.16878 4.89375 3.15003 4.43625 3.07128C4.33125 3.05253 4.23375 3.04503 4.12875 3.03003C4.10969 3.02235 4.0893 3.01853 4.06875 3.01878C4.065 3.01878 4.06125 3.02253 4.05375 3.02253C2.65125 2.86503 1.35 3.18378 0.6675 3.40503ZM6.0675 3.39003V4.80003H4.26V3.41628C4.30125 3.42378 4.33875 3.42378 4.38 3.43128C4.875 3.51378 5.25375 3.53253 5.61 3.48753C5.77125 3.46878 5.92125 3.43128 6.0675 3.39003ZM3.22875 5.17128H7.09875V7.17003C6.81 7.09878 6.5025 7.06128 6.19125 7.06128H4.13625C3.82125 7.06128 3.52125 7.09878 3.2325 7.16628V5.17128H3.22875ZM0.54 11.0213C0.54 9.45003 1.59 8.03253 3.0975 7.58253C3.43234 7.47748 3.78158 7.4256 4.1325 7.42878H6.1875C6.5475 7.42878 6.9 7.48128 7.22625 7.58253C7.61625 7.70253 7.9725 7.88628 8.295 8.11878L8.55375 11.6888H0.54V11.0213ZM0.54 12.06H8.58L8.955 17.235H0.54V12.06ZM8.9625 21.8738H1.36125C0.9075 21.8738 0.53625 21.5025 0.53625 21.0413V17.6025H8.95125V20.1863C8.95125 20.7113 9.2625 21.165 9.70875 21.375C9.58125 21.6713 9.28875 21.8738 8.9625 21.8738ZM10.275 21.1425C9.78375 21.1425 9.38625 20.7675 9.33375 20.2913H12.4012C12.4462 20.6288 12.6037 20.925 12.8475 21.1425H10.275ZM23.6325 20.1038C23.6325 20.3793 23.5231 20.6435 23.3283 20.8383C23.1335 21.0331 22.8692 21.1425 22.5938 21.1425H13.7925C13.517 21.1425 13.2528 21.0331 13.058 20.8383C12.8632 20.6435 12.7537 20.3793 12.7537 20.1038V15.4313C12.7537 14.8575 13.2188 14.3888 13.7925 14.3888H22.5938C23.1675 14.3888 23.6325 14.8575 23.6325 15.4313V20.1038Z" fill="black"/>
<path d="M22.5939 12.6188H13.7627C13.8377 12.0788 14.1152 11.6813 14.6177 11.3888C14.9589 11.1938 15.3714 11.0963 15.8214 11.1038C19.2227 11.1713 20.2614 10.1775 20.5577 9.73877C21.8214 10.5225 22.4927 11.475 22.5939 12.6188Z" fill="black"/>
<path d="M22.5939 14.3887H13.7927C13.2189 14.3887 12.7539 14.8575 12.7539 15.4312V20.1075C12.7539 20.383 12.8633 20.6472 13.0582 20.842C13.253 21.0368 13.5172 21.1462 13.7927 21.1462H22.5939C22.7303 21.1462 22.8654 21.1194 22.9914 21.0672C23.1174 21.015 23.232 20.9384 23.3284 20.842C23.4249 20.7455 23.5014 20.631 23.5536 20.505C23.6058 20.379 23.6327 20.2439 23.6327 20.1075V15.4312C23.6327 14.8575 23.1639 14.3887 22.5939 14.3887ZM18.1914 19.845C17.0439 19.845 16.1102 18.9112 16.1102 17.7675C16.1102 16.62 17.0439 15.6862 18.1914 15.6862C19.3352 15.6862 20.2689 16.62 20.2689 17.7675C20.2727 18.9112 19.3352 19.845 18.1914 19.845Z" fill="black"/>
<path d="M15.1278 2.48999L15.0491 3.54749H8.33281L8.25781 2.48999H15.1278ZM9.32281 17.43H12.3828V19.9237H9.32281V17.43Z" fill="black"/>
<path d="M7.09477 5.17126V7.17001C6.80602 7.09877 6.49852 7.06126 6.18727 7.06126H4.13227C3.81727 7.06126 3.51727 7.09876 3.22852 7.16626V5.17126H7.09477Z" fill="black"/>
<path d="M6.4685 2.26501V2.82001C6.221 2.97376 5.91725 3.07876 5.561 3.12376C5.24225 3.16876 4.89725 3.15001 4.43975 3.07126C4.33475 3.05251 4.23725 3.04501 4.13225 3.03001C4.11319 3.02234 4.0928 3.01852 4.07225 3.01876C4.0685 3.01876 4.06475 3.02251 4.05725 3.02251C2.651 2.86501 1.34975 3.18376 0.667252 3.40501C0.636512 3.41546 0.603674 3.41819 0.571631 3.41296C0.539588 3.40773 0.509323 3.3947 0.483502 3.37501C0.446535 3.34705 0.416725 3.31071 0.396518 3.26899C0.37631 3.22727 0.366281 3.18136 0.367252 3.13501C0.367252 3.01501 0.434752 2.90626 0.532252 2.86876C1.001 2.69626 2.06975 2.36626 3.29975 2.36626C3.6485 2.36626 4.00475 2.39251 4.37225 2.45626C4.871 2.54626 5.24975 2.56126 5.606 2.51626C5.93225 2.47126 6.221 2.38876 6.4685 2.26501Z" fill="black"/>
<path d="M8.55004 11.6887H0.540039V11.0212C0.540039 9.44998 1.59004 8.03248 3.09754 7.58248C3.43238 7.47743 3.78162 7.42555 4.13254 7.42873H6.18754C6.54754 7.42873 6.90004 7.48123 7.22629 7.58248C7.61629 7.70248 7.97254 7.88623 8.29504 8.11873L8.55004 11.6887Z" fill="black"/>
<path d="M9.71238 21.3787C9.58488 21.6712 9.29238 21.8737 8.96238 21.8737H1.36113C0.907383 21.8737 0.536133 21.5025 0.536133 21.0412V17.6025H8.95113V20.1862C8.95488 20.715 9.26238 21.1687 9.71238 21.3787Z" fill="black"/>
<path d="M13.7514 4.815H9.63395C9.5327 4.815 9.4502 4.90125 9.4502 4.99875V7.00125C9.4502 7.1025 9.53645 7.185 9.63395 7.185H13.7514C13.8527 7.185 13.9352 7.09875 13.9352 7.00125V4.99875C13.9352 4.90125 13.8489 4.815 13.7514 4.815ZM13.5639 6.8175H9.8177V5.18625H13.5639V6.8175Z" fill="black"/>
<path d="M9.81738 5.18628H13.5636V6.81753H9.81738V5.18628Z" fill="black"/>
<path d="M6.79832 13.965H5.84957V12.9862C5.84957 12.885 5.76332 12.8025 5.66582 12.8025H4.66082C4.55957 12.8025 4.47707 12.8887 4.47707 12.9862V13.965H3.52457C3.41957 13.965 3.34082 14.0475 3.34082 14.1487V15.15C3.34082 15.2512 3.42332 15.3337 3.52457 15.3337H4.47332V16.3087C4.47332 16.4137 4.55957 16.4925 4.65707 16.4925H5.66207C5.76332 16.4925 5.84582 16.41 5.84582 16.3087V15.3337H6.79457C6.89957 15.3337 6.97832 15.2475 6.97832 15.15V14.1487C6.97903 14.1247 6.97488 14.1008 6.96614 14.0785C6.95739 14.0561 6.94422 14.0357 6.92741 14.0186C6.9106 14.0014 6.89051 13.9878 6.86833 13.9786C6.84615 13.9694 6.82234 13.9648 6.79832 13.965ZM6.61082 14.9662H5.66207C5.55707 14.9662 5.47832 15.0487 5.47832 15.15V16.125H4.84457V15.15C4.84457 15.045 4.76207 14.9662 4.66082 14.9662H3.71207V14.3362H4.66082C4.76582 14.3362 4.84457 14.25 4.84457 14.1525V13.1737H5.47832V14.1525C5.47832 14.2537 5.56082 14.3362 5.66207 14.3362H6.61082V14.9662Z" fill="black"/>
<path d="M6.61164 14.3325V14.9625H5.66289C5.55789 14.9625 5.47914 15.045 5.47914 15.1463V16.125H4.84539V15.15C4.84539 15.045 4.76289 14.9663 4.66164 14.9663H3.71289V14.3363H4.66164C4.76664 14.3363 4.84539 14.25 4.84539 14.1525V13.1738H5.47914V14.1525C5.47914 14.2538 5.56164 14.3363 5.66289 14.3363H6.61164V14.3325Z" fill="black"/>
<path d="M18.1916 15.6863C17.0441 15.6863 16.1104 16.62 16.1104 17.7675C16.1104 18.9113 17.0441 19.845 18.1916 19.845C19.3354 19.845 20.2691 18.9113 20.2691 17.7675C20.2729 16.62 19.3354 15.6863 18.1916 15.6863ZM18.1916 19.4775C17.2466 19.4775 16.4779 18.7088 16.4779 17.7675C16.4779 16.8225 17.2466 16.0538 18.1916 16.0538C19.1329 16.0538 19.9016 16.8225 19.9016 17.7675C19.9006 18.2207 19.7201 18.6551 19.3997 18.9756C19.0792 19.2961 18.6448 19.4765 18.1916 19.4775Z" fill="black"/>
</svg>
