<svg width="24" height="24" viewBox="0 0 24 24" fill="none" xmlns="http://www.w3.org/2000/svg">
<path d="M23.3637 13.2146C22.7557 12.3986 21.8837 11.6946 20.7477 11.1026C19.8037 10.6066 18.7477 10.1986 17.5797 9.87857C16.6197 9.62257 15.4997 9.40657 14.2197 9.23057C13.4837 9.11857 12.8517 9.10257 12.3237 9.18257C11.1877 9.32657 10.2597 9.87057 9.53972 10.8146C9.25172 11.1666 8.85172 11.7106 8.33972 12.4466L7.78772 13.2146C6.71572 14.6546 5.33972 15.5266 3.65972 15.8306C3.48372 15.8626 3.36372 15.8546 3.29972 15.8066C3.25172 15.7586 3.22772 15.6466 3.22772 15.4706C3.25972 12.6386 3.25972 9.79057 3.22772 6.92657C3.22772 6.76657 3.25972 6.65457 3.32372 6.59057C3.38772 6.51057 3.49172 6.45457 3.63572 6.42257L9.08372 4.64657C9.17972 4.61457 9.25172 4.55857 9.29972 4.47857C7.60372 3.93457 6.33972 3.51857 5.50772 3.23057L4.85972 3.01457C4.17172 2.82257 3.66772 2.64657 3.34772 2.48657H2.69972L2.67572 3.06257V15.3986C2.67572 15.6066 2.65172 15.7506 2.60372 15.8306C2.55572 15.9106 2.42772 15.9666 2.21972 15.9986C1.43572 16.1426 0.859719 16.5346 0.491719 17.1746L0.323719 17.4386C0.211719 17.6626 0.123719 17.8946 0.0597188 18.1346C-0.00428125 18.4706 -0.00428125 18.7986 0.0597188 19.1186C0.155719 19.5026 0.363719 19.8706 0.683719 20.2226C1.19572 20.8146 1.89172 21.1506 2.77172 21.2306C3.60372 21.3586 4.56372 21.4386 5.65172 21.4706C7.37972 21.5506 9.17172 21.5186 11.0277 21.3746H11.2917L13.7397 21.0866C14.5717 20.9746 15.2277 20.8706 15.7077 20.7746H15.7317C17.5557 20.4386 19.1957 19.9186 20.6517 19.2146C21.8197 18.6386 22.7077 17.9506 23.3157 17.1506C23.7637 16.5746 23.9877 15.9266 23.9877 15.2066C24.0037 14.4706 23.7957 13.8066 23.3637 13.2146ZM3.92372 20.1026C3.76372 20.1826 3.50772 20.2466 3.15572 20.2946L2.98772 20.3186C2.23572 20.2706 1.67572 20.0386 1.30772 19.6226C1.08372 19.3986 0.947719 19.1346 0.899719 18.8306C0.851719 18.5106 0.891719 18.2146 1.01972 17.9426C1.30772 17.3826 1.79572 17.0386 2.48372 16.9106C2.56372 16.8946 2.61172 16.9026 2.62772 16.9346C2.64372 16.9666 2.65172 17.0226 2.65172 17.1026V17.1506C2.66772 17.3906 2.67572 17.7506 2.67572 18.2306V18.2786C2.67572 18.3906 2.69172 18.4706 2.72372 18.5186C2.75572 18.5666 2.83572 18.5906 2.96372 18.5906C3.09172 18.5906 3.17172 18.5586 3.20372 18.4946C3.23572 18.4306 3.25172 18.3346 3.25172 18.2066C3.25172 18.1106 3.25172 17.9666 3.25172 17.7746C3.25172 17.5666 3.24372 17.4146 3.22772 17.3186C3.21172 17.1426 3.22772 17.0306 3.27572 16.9826C3.33972 16.9186 3.46772 16.9106 3.65972 16.9586C4.04372 17.0866 4.35572 17.2946 4.59572 17.5826C4.85172 17.8546 4.99572 18.1826 5.02772 18.5666C5.04372 18.8546 4.94772 19.1426 4.73972 19.4306C4.53172 19.7186 4.25972 19.9426 3.92372 20.1026Z" fill="black"/>
</svg>
