<svg width="24" height="24" viewBox="0 0 24 24" fill="none" xmlns="http://www.w3.org/2000/svg">
<path d="M11.9963 20.372C11.6629 20.372 11.1629 20.372 10.4963 20.372C9.16293 20.3587 8.16293 20.352 7.49626 20.352C6.8296 20.3653 6.23626 20.212 5.71626 19.892C5.23626 19.5987 4.8696 19.2053 4.61626 18.712C4.36293 18.2053 4.2496 17.6853 4.27626 17.152C4.31626 16.3253 4.32293 15.0853 4.29626 13.432V12.812C4.29626 12.6387 4.32293 12.5053 4.37626 12.412C4.4296 12.3053 4.5296 12.212 4.67626 12.132C5.79626 11.5453 7.4696 10.6587 9.69626 9.47199L11.6563 8.41199C11.7896 8.34532 11.9096 8.31199 12.0163 8.31199C12.1229 8.31199 12.2363 8.34532 12.3563 8.41199C14.8363 9.75866 17.1629 10.9987 19.3363 12.132C19.4829 12.212 19.5829 12.2987 19.6363 12.392C19.6896 12.4853 19.7096 12.612 19.6963 12.772V17.272C19.6963 17.8587 19.5629 18.3853 19.2963 18.852C19.0429 19.3187 18.6829 19.6853 18.2163 19.952C17.7496 20.232 17.2229 20.372 16.6363 20.372H11.9963ZM20.7163 10.792C20.6763 10.7787 20.6029 10.752 20.4963 10.712C20.2429 10.6187 20.0563 10.5387 19.9363 10.472C17.2296 9.07199 14.7496 7.74532 12.4963 6.49199C12.3096 6.39866 12.1363 6.35199 11.9763 6.35199C11.8296 6.35199 11.6696 6.40532 11.4963 6.51199C10.2163 7.20532 8.3096 8.21866 5.77626 9.55199L3.95626 10.532C3.5296 10.7587 3.1296 10.7987 2.75626 10.652C2.38293 10.492 2.14293 10.1853 2.03626 9.73199C1.9696 9.46532 2.00293 9.20532 2.13626 8.95199C2.2696 8.69866 2.4896 8.49199 2.79626 8.33199L4.59626 7.37199C6.87626 6.14532 8.5896 5.23199 9.73626 4.63199L10.1763 4.39199C10.7896 4.05866 11.2563 3.82532 11.5763 3.69199C11.7096 3.63866 11.8629 3.61866 12.0363 3.63199C12.2096 3.63199 12.3563 3.65866 12.4763 3.71199C14.1429 4.57866 16.6296 5.89866 19.9363 7.67199L21.2963 8.39199C21.5896 8.53866 21.7896 8.74532 21.8963 9.01199C22.0163 9.26532 22.0296 9.53866 21.9363 9.83199C21.8563 10.112 21.7096 10.3387 21.4963 10.512C21.2829 10.672 21.0229 10.7653 20.7163 10.792Z" fill="black"/>
</svg>
