<svg width="24" height="24" viewBox="0 0 24 24" fill="none" xmlns="http://www.w3.org/2000/svg">
<path d="M1.5 6.53712C1.5 6.47312 1.5 6.41712 1.5 6.36911C1.532 6.03312 1.676 5.77712 1.932 5.60112C2.204 5.42512 2.476 5.41712 2.748 5.57712C3.052 5.75311 3.204 6.10511 3.204 6.63312V13.0651H22.452V18.5371H20.724V14.8891H3.204V18.5371H1.5V6.53712ZM8.94 8.28912H9.252C11.524 8.28912 13.22 8.29712 14.34 8.31312H16.596C18.58 8.29712 20.076 8.29712 21.084 8.31312C21.516 8.31312 21.86 8.45712 22.116 8.74512C22.372 9.01712 22.5 9.40111 22.5 9.89711V12.0811H8.94V8.28912ZM4.212 9.63311C4.212 9.29711 4.348 8.99311 4.62 8.72112C4.892 8.44912 5.22 8.31312 5.604 8.31312H8.22V12.0811H4.212V9.63311Z" fill="black"/>
</svg>
