<svg width="24" height="24" viewBox="0 0 24 24" fill="none" xmlns="http://www.w3.org/2000/svg">
<path d="M22.2246 10.152L19.9206 8.51999C19.9366 8.47199 19.9446 8.39999 19.9446 8.30399V4.91999C19.9446 4.75999 19.9126 4.65599 19.8486 4.60799C19.8006 4.54399 19.6966 4.51199 19.5366 4.51199H17.3286C17.1686 4.51199 17.0566 4.54399 16.9926 4.60799C16.9446 4.65599 16.9206 4.75999 16.9206 4.91999V6.40799L12.3606 3.19199C12.1846 3.07999 12.0566 3.02399 11.9766 3.02399C11.9126 3.02399 11.8086 3.07999 11.6646 3.19199L5.80861 7.29599C4.01661 8.57599 2.66461 9.53599 1.75261 10.176C1.62461 10.272 1.54461 10.36 1.51261 10.44C1.49661 10.52 1.52061 10.616 1.58461 10.728L2.92861 12.648C2.94461 12.68 2.98461 12.72 3.04861 12.768C3.11261 12.8 3.16061 12.832 3.19261 12.864L3.52861 12.672L4.00861 12.312C3.99261 12.36 3.98461 12.432 3.98461 12.528V20.472C3.98461 20.68 4.01661 20.816 4.08061 20.88C4.14461 20.944 4.28061 20.976 4.48861 20.976H9.48061C9.70461 20.976 9.84061 20.944 9.88861 20.88C9.95261 20.816 9.98461 20.68 9.98461 20.472V13.416H14.0166V20.496C14.0166 20.688 14.0486 20.816 14.1126 20.88C14.1766 20.944 14.3046 20.976 14.4966 20.976H19.5126C19.6886 20.976 19.8086 20.944 19.8726 20.88C19.9366 20.816 19.9686 20.696 19.9686 20.52V12.456C19.9686 12.376 19.9606 12.32 19.9446 12.288L20.4966 12.672C20.6566 12.784 20.7766 12.832 20.8566 12.816C20.9366 12.8 21.0326 12.712 21.1446 12.552L22.3446 10.824C22.4566 10.664 22.5046 10.544 22.4886 10.464C22.4886 10.384 22.4006 10.28 22.2246 10.152Z" fill="black"/>
</svg>
