<svg width="71" height="88" viewBox="0 0 71 88" fill="none" xmlns="http://www.w3.org/2000/svg">
<path fill-rule="evenodd" clip-rule="evenodd" d="M21.9224 0.0369649C21.8582 0.0563901 21.6674 0.152936 21.4984 0.251491C21.3295 0.350001 21.0406 0.474992 20.8565 0.529249C19.9799 0.787492 19.0329 1.25236 18.3285 1.77023C17.598 2.3073 17.4529 2.42706 16.684 3.1274C15.6555 4.06427 15.2277 4.53074 14.8318 5.14726C14.6478 5.43368 14.2927 5.96374 14.0424 6.32523C13.046 7.76497 12.5532 8.95982 11.7546 11.8723C11.0882 14.3028 11.0811 14.3429 11.193 15.0428C11.2474 15.383 11.2788 16.0083 11.3075 17.3203C11.3532 19.417 11.395 19.7825 11.6679 20.4762C11.7629 20.7178 11.8389 21.0964 11.9771 22.0168C12.1635 23.2584 12.3046 24.0249 12.4647 24.6661C12.5559 25.0319 12.871 25.6934 13.913 27.7071C14.2725 28.4019 14.465 28.8315 14.5633 29.1584C14.6401 29.4139 14.8205 29.9444 14.9642 30.3374C15.1079 30.7303 15.2797 31.2126 15.3461 31.4091C15.569 32.0691 15.6463 32.1716 16.2679 32.6315C16.957 33.1414 17.2989 33.5956 17.8878 34.7837C18.1676 35.3483 18.3823 35.7085 18.6694 36.0951C18.8871 36.3883 19.1218 36.74 19.1911 36.8766C19.3145 37.1202 19.3167 37.1381 19.3055 37.7928C19.2929 38.5302 19.3394 38.8034 19.5567 39.2685C19.7304 39.6405 20.1789 40.2897 20.6988 40.9221C20.9406 41.2161 21.1749 41.537 21.2196 41.6352C21.3146 41.8441 21.3252 42.1901 21.2525 42.7103C21.1929 43.1374 21.2132 43.2207 21.5844 44.0723C22.0363 45.1091 22.2873 45.5385 22.6939 45.97C23.1848 46.4912 23.1639 46.8498 22.6089 47.4262C22.1335 47.9198 22.0207 47.9603 20.809 48.0719C20.3391 48.1151 20.3151 48.0927 19.8171 47.1413C19.3473 46.2438 19.1693 45.8297 19.0309 45.3125C18.8306 44.5636 18.7634 44.4147 18.4475 44.0208C18.1453 43.6442 18.098 43.4633 18.2031 43.0865C18.3221 42.66 18.337 42.2696 18.2437 42.025C18.0796 41.5952 17.6163 41.257 17.1902 41.2561C17.0234 41.2558 16.8795 41.3085 16.4609 41.5236C15.6615 41.9343 15.4343 41.9053 14.7552 41.3062C13.7918 40.4563 13.5422 40.4055 12.9281 40.9341C12.7358 41.0997 12.214 41.541 11.7685 41.9149C10.5118 42.9696 10.1818 43.3807 10.0611 44.0424C9.99082 44.4272 10.0586 44.7501 10.3717 45.5213C10.7995 46.5753 10.9061 47.001 10.9471 47.82C10.9844 48.5664 11.0373 48.7874 11.2684 49.1632C11.4286 49.4238 11.6555 49.6113 12.0038 49.7708C12.2692 49.8924 12.461 49.9103 13.165 49.8791C13.501 49.8643 13.672 49.9429 13.8328 50.1861C13.9299 50.3328 13.959 50.4549 14.0109 50.9328C14.0711 51.4864 14.0809 51.5199 14.3284 52.0141C14.5624 52.4814 14.7547 52.7914 15.3355 53.6379C15.6313 54.0689 15.7256 54.4065 15.7686 55.1882C15.8318 56.3359 15.8704 56.391 16.7831 56.6392C17.6745 56.8815 18.0253 57.0041 18.4021 57.2052C19.0384 57.5447 19.5645 58.0382 19.8973 58.6076C20.2146 59.1504 20.3913 59.2607 21.035 59.3169C21.7827 59.3822 22.244 59.6599 22.7571 60.3535C22.9627 60.6315 23.0368 60.6946 23.3198 60.8326C23.6029 60.9708 23.7106 60.997 24.1408 61.0325C24.7044 61.0789 24.8378 61.1323 25.0731 61.4053C25.2983 61.6665 25.763 62.3759 25.9661 62.7686C26.2769 63.3697 26.8175 63.7674 27.6173 63.9835C28.2343 64.1502 28.3262 64.227 29.2234 65.3258C29.6922 65.8999 30.0921 66.3703 31.8993 68.4732C32.8113 69.5345 32.8381 69.5711 32.9094 69.8546C32.9529 70.0272 32.9493 70.0925 32.8877 70.2539C32.788 70.5151 32.6905 70.5967 32.1103 70.9046C31.2503 71.3611 30.8863 71.6984 30.2114 72.6642C30.003 72.9626 29.6804 73.4077 29.4946 73.6533C28.964 74.3548 28.5921 75.1282 28.3972 75.9356C28.2795 76.4233 27.9482 77.3476 27.7498 77.742C27.5219 78.1951 27.1105 78.7847 26.6404 79.332C26.099 79.9624 25.8165 80.2144 25.4598 80.3849L25.1766 80.5204L24.1434 80.4946C22.6598 80.4577 21.9417 80.3626 20.388 79.9973C19.6423 79.822 18.7207 79.774 17.2865 79.8358C15.6136 79.9078 15.4964 79.9249 14.6767 80.2166C14.2905 80.3541 13.8512 80.4956 13.7004 80.5312C13.1606 80.6586 12.3466 80.5959 11.619 80.3709C11.4246 80.3108 11.0933 80.2665 10.6149 80.2366C9.92312 80.1933 9.32964 80.0778 8.22886 79.7719C7.89131 79.6781 7.47433 79.6863 7.15842 79.7928C7.01379 79.8415 6.70341 80.0025 6.46868 80.1504C5.88895 80.5159 5.24576 80.8313 4.21111 81.2572C3.11688 81.7078 2.75809 81.8152 1.86825 81.9593C0.882377 82.1188 0.703115 82.1741 0.594853 82.3517C0.391404 82.6856 0.528896 83.1658 0.876888 83.3365C1.11515 83.4534 2.08946 83.5885 2.69383 83.5885C3.33251 83.5885 3.66114 83.5362 4.23967 83.3425C4.65665 83.2029 5.16231 83.1037 5.83268 83.0299C6.29991 82.9785 6.91119 82.7356 7.25485 82.4647C7.3458 82.393 7.51266 82.1953 7.6257 82.0252C7.85552 81.6792 7.99114 81.5548 8.18472 81.5122C8.54222 81.4337 8.82408 81.6976 9.2939 82.5507C9.76568 83.4075 10.0081 83.5775 10.4472 83.3596C10.7233 83.2226 10.7785 83.108 10.7454 82.7407C10.71 82.3465 10.7674 82.2698 11.0926 82.2773C11.5531 82.2878 11.9132 82.5543 12.2035 83.0994C12.3978 83.4643 12.6793 83.7474 12.9887 83.8891C13.1871 83.98 13.3302 84.0082 13.6679 84.0232C14.2296 84.0481 14.3184 84.0867 14.5087 84.3895C14.879 84.9783 15.2037 85.1425 15.6133 84.948C15.8053 84.8569 15.8505 84.7344 15.8963 84.1824C15.9366 83.698 15.9838 83.5891 16.1538 83.5891C16.2707 83.5891 17.4325 84.3522 17.9377 84.7608C18.4338 85.162 18.6595 85.2258 19.0142 85.0647C19.1405 85.0073 19.2114 84.9427 19.2302 84.8678C19.275 84.689 19.1266 84.2704 18.8844 83.8926C18.4197 83.1676 18.5224 82.7838 19.2409 82.5609C19.7093 82.4155 20.4795 82.2958 20.647 82.3423C20.8215 82.3907 21.0001 82.552 21.1535 82.7996C21.3181 83.0653 21.4344 83.1833 21.6308 83.2841C21.8674 83.4055 22.1748 83.6979 22.374 83.991C22.6137 84.3438 22.9545 84.6486 23.1504 84.6854C23.6175 84.773 23.9247 84.2908 23.6527 83.8968C23.5952 83.8135 23.3755 83.4981 23.1644 83.1959C22.7011 82.5324 22.6453 82.3944 22.7606 82.1984C22.8059 82.1215 22.9411 82.0079 23.0636 81.944C23.656 81.6345 24.2501 81.9532 24.4981 82.7137C24.539 82.8391 24.6689 83.1225 24.7868 83.3435C25.0654 83.8657 25.1792 84.2885 25.2134 84.9288C25.245 85.5201 25.3344 85.8423 25.5853 86.2685C25.7991 86.6317 26.2251 87.0427 26.5338 87.1834C26.8719 87.3376 27.567 87.5083 28.1925 87.5907C28.7759 87.6676 29.7631 87.6557 30.0501 87.5682C30.3166 87.487 30.6859 87.2378 30.8397 87.0353C31.1921 86.5716 30.9351 86.2486 30.0889 86.092C29.6701 86.0145 29.3827 85.8383 29.2371 85.5697C29.1156 85.3456 29.0231 84.8529 29.0231 84.43C29.0231 84.3065 28.9905 84.1369 28.9508 84.0531C28.7973 83.7294 28.4577 83.5787 28.2929 83.761C28.2518 83.8063 28.1014 84.153 27.9585 84.5313C27.649 85.3509 27.589 85.4725 27.4337 85.5947C27.2343 85.7516 27.0965 85.7175 26.7923 85.4357C26.2966 84.9765 26.201 84.6944 26.0302 83.1872C25.9263 82.2702 25.9425 82.1041 26.1518 81.9393C26.2917 81.8292 26.5482 81.8192 26.7769 81.9148C27.0292 82.0203 27.4982 82.389 27.8507 82.7592C28.0282 82.9455 28.1994 83.0979 28.2313 83.0979C28.3146 83.0979 28.4716 82.9832 28.7843 82.6936C29.0564 82.4418 29.3567 82.2941 29.5971 82.2941C29.6586 82.2941 29.9412 82.3734 30.2251 82.4703C30.5162 82.5696 31.0218 82.6949 31.3848 82.7576C32.3694 82.9277 32.4144 82.9838 32.4145 84.0397C32.4146 84.7274 32.4163 84.7393 32.5516 85.0103C32.7163 85.3399 33.0355 85.6366 33.4301 85.8264C33.9109 86.0577 34.0583 86.0702 35.2755 85.9831C35.8742 85.9402 36.8058 85.8761 37.3458 85.8406C38.4758 85.7664 38.7084 85.7315 39.2764 85.5512C39.8992 85.3535 40.2577 85.3895 40.7315 85.6971C41.2236 86.0166 41.4535 86.0851 42.21 86.1379C43.2805 86.2126 43.6063 86.3104 44.0064 86.6772C44.2705 86.9192 44.5763 87.1057 44.8518 87.1926C45.1857 87.2979 45.2755 87.2455 45.4615 86.8371C45.652 86.4187 45.8227 86.2684 46.107 86.2686C46.3444 86.2688 46.4822 86.3411 46.8852 86.6766C47.0342 86.8007 47.228 86.9326 47.3159 86.9698C47.8237 87.1841 48.0558 87.3172 48.3456 87.56C48.7116 87.8668 48.9131 87.9462 49.2116 87.9014C49.5778 87.8465 49.7732 87.5889 49.6391 87.3381C49.584 87.2352 48.3541 86.2723 47.7784 85.8813C47.5495 85.7259 47.2623 85.5719 47.1313 85.5344C46.8522 85.4545 46.1538 85.3307 45.9822 85.3307C45.9157 85.3307 45.6824 85.268 45.4637 85.1913C44.9908 85.0255 44.5066 84.986 43.7861 85.0543C42.985 85.1303 42.8402 85.0989 40.966 84.4412C40.7482 84.3647 40.4545 84.2309 40.3132 84.1436C39.9177 83.8994 39.5824 83.8158 38.7302 83.7494C38.2525 83.7121 37.9066 83.6631 37.7982 83.6175C37.6147 83.5402 36.5815 82.5308 36.428 82.279C36.3669 82.1787 36.342 82.0554 36.3419 81.8532C36.3416 81.4132 36.5642 80.8327 37.3371 79.2576C38.0908 77.7218 38.3076 77.2338 38.5972 76.4219C39.2481 74.5969 39.7871 73.5548 40.7045 72.3478C41.2537 71.625 41.3153 71.5339 41.3992 71.3191C41.5413 70.9553 41.4771 70.589 41.1721 70.0239C40.9893 69.6854 40.7061 68.9986 40.6034 68.6449C40.5625 68.5044 40.4423 68.2174 40.3362 68.0071C40.1473 67.6329 40.0578 67.3507 39.9628 66.8299C39.9047 66.5116 39.5901 65.9228 39.4553 65.88C39.2586 65.8175 39.1201 66.1332 39.0773 66.7421C39.0553 67.0546 39.0666 67.1518 39.1527 67.3896C39.2084 67.5435 39.2922 67.7237 39.3389 67.7901C39.5619 68.1066 39.7034 68.5592 40.0204 69.9692C40.2929 71.1812 40.3434 71.0219 39.3779 71.9961C38.937 72.4409 38.5228 72.8752 38.4576 72.9611C38.3216 73.1404 37.9349 73.9314 37.2022 75.5288C36.9206 76.1428 36.4994 77.022 36.2662 77.4825C35.9244 78.1575 35.8245 78.3198 35.751 78.3198C35.6615 78.3198 35.6603 78.3041 35.6848 77.4825C35.7076 76.7169 35.7271 76.5611 35.9126 75.6628C36.2264 74.1435 36.3723 73.779 37.0384 72.8495C37.232 72.5793 37.5009 72.1823 37.6358 71.9673C37.7708 71.7523 38.034 71.3402 38.2207 71.0516C38.4073 70.763 38.6007 70.4467 38.6504 70.3486C38.8601 69.9348 38.8185 69.562 38.4837 68.8528C38.1704 68.1889 37.8278 67.2458 37.3807 65.8162C37.229 65.3313 37.2115 64.7887 37.3412 64.5971C37.459 64.4232 37.6369 64.3426 37.9032 64.3426C38.1602 64.3426 38.357 64.4287 38.7931 64.7319C39.1622 64.9885 39.2715 65.0297 39.4202 64.968C39.5329 64.9213 40.2086 64.2235 40.548 63.8033C40.7733 63.5244 40.9378 63.1338 40.9676 62.8067C41.0133 62.3067 40.841 61.711 40.54 61.3283C40.4435 61.2055 40.1739 60.8338 39.941 60.5022C39.4444 59.795 39.2665 59.6172 37.3904 57.9519C35.5585 56.3259 35.1138 55.9447 34.5611 55.5262C33.9539 55.0664 33.6642 54.7713 33.2869 54.2279C33.1164 53.9824 32.4458 53.038 31.7967 52.1293C31.1477 51.2206 30.5798 50.3967 30.5348 50.2984C30.3669 49.9315 30.4518 49.4236 30.7457 49.0381C30.9137 48.8177 30.9866 48.6078 30.9862 48.3462C30.9856 48.0288 30.8412 47.7893 30.2872 47.1867C29.3975 46.2188 29.2101 46.1062 28.4837 46.1029L28.0113 46.1008L27.7474 45.9258C27.2916 45.6236 26.9813 45.259 25.5596 43.3545C24.7987 42.3352 23.9184 41.1697 23.6035 40.7645C23.2885 40.3592 22.9784 39.9171 22.9143 39.782C22.8054 39.5526 22.7973 39.4908 22.7912 38.8443C22.7858 38.2743 22.7684 38.1044 22.6927 37.882C22.5501 37.4632 22.3821 37.1951 22.0639 36.8786C21.7293 36.5457 21.4113 36.3745 20.9901 36.3005C20.5202 36.2181 20.282 36.0755 19.884 35.6386C19.4309 35.141 19.1699 34.7664 19.1344 34.5623C19.0831 34.2669 18.8119 33.7811 18.4212 33.2846C17.8069 32.5041 17.5013 32.0413 16.9728 31.0917C16.3313 29.9386 15.7915 28.8679 15.5034 28.1771C15.1132 27.2411 14.3006 24.968 13.937 23.7953C13.8342 23.4638 13.6497 22.9714 13.527 22.7013C12.9982 21.5371 12.9133 21.1368 12.9193 19.8381C12.9226 19.1396 12.9027 18.7144 12.8495 18.3474C12.6575 17.0231 12.658 16.9399 12.8702 14.9982C12.9413 14.3473 13.0116 13.644 13.0264 13.4352C13.1139 12.2042 13.3306 11.2767 13.7835 10.1949C13.8904 9.93947 14.0112 9.56762 14.0517 9.36859C14.1896 8.69224 14.3698 8.28829 14.9746 7.30002C15.7522 6.02943 16.8919 4.46215 17.4435 3.90476C17.8574 3.48652 18.4693 3.11833 20.5665 2.02561C21.7354 1.41651 21.9098 1.31916 22.1424 1.14585C22.4425 0.922263 22.5519 0.744935 22.5521 0.482405C22.5523 0.259975 22.4534 0.111317 22.2551 0.035849C22.1287 -0.0122004 22.0842 -0.0120669 21.9224 0.0369649ZM21.419 38.5559C21.714 38.8688 21.7206 39.2831 21.4352 39.5699C21.3436 39.662 21.2478 39.7374 21.2222 39.7374C21.1967 39.7374 21.1142 39.6856 21.039 39.6222C20.719 39.3528 20.6224 39.0639 20.7501 38.7581C20.9141 38.3652 21.1673 38.2887 21.419 38.5559ZM23.8788 43.0502C23.9168 43.0818 23.9985 43.1882 24.0604 43.2868C24.1223 43.3854 24.3212 43.6509 24.5025 43.8769C24.8763 44.3429 25.1221 44.7316 25.1834 44.9537C25.2064 45.0371 25.3334 45.269 25.4655 45.4691C25.5977 45.6692 25.8238 46.0137 25.968 46.2348C26.1122 46.4558 26.3229 46.7371 26.4361 46.8599C26.7437 47.1934 26.8447 47.3591 26.9087 47.6342C26.9503 47.8132 26.9542 47.9381 26.9227 48.0787C26.8284 48.4998 26.6876 48.6709 26.0807 49.1018C25.6671 49.3954 25.4181 49.509 24.9757 49.6057C24.4218 49.7268 24.4182 49.7353 24.5928 50.5217C24.706 51.0314 24.7098 51.2174 24.6105 51.3766C24.4699 51.602 23.7695 52.1858 23.4658 52.3309C22.9324 52.5856 22.7464 52.4994 22.1149 51.7051C21.7197 51.2079 21.3643 50.8503 21.0525 50.636C20.9295 50.5514 20.7609 50.3935 20.6776 50.2851C20.3956 49.9174 20.1778 49.8749 20.0074 50.1545C19.8835 50.3579 19.8969 50.487 20.0797 50.8528C20.3532 51.3997 21.142 52.1343 21.8293 52.4822C21.9987 52.5679 22.1035 52.6615 22.199 52.8121C22.3535 53.0558 22.4631 53.393 22.4631 53.6246C22.4631 53.8596 22.2547 54.1609 21.9666 54.3424C21.7541 54.4763 21.6912 54.4937 21.4144 54.4948C21.1273 54.496 21.071 54.4794 20.7195 54.2909C20.2543 54.0413 19.2226 53.3957 18.739 53.0516C18.2882 52.7308 17.6084 52.0606 17.2375 51.5711C16.9331 51.1694 16.72 51.0195 16.3792 50.9669C16.0378 50.9142 15.792 50.5473 15.8753 50.215C15.9186 50.0423 16.1172 49.8356 16.3563 49.7144C16.9045 49.4364 18.1488 48.9655 18.8896 48.7556C19.6179 48.5493 19.7712 48.5631 20.9241 48.9397C21.456 49.1134 22.035 49.286 22.2106 49.3233C22.5969 49.4053 23.696 49.4722 23.834 49.4221C23.9282 49.388 23.9318 49.3687 23.9069 49.0385C23.8616 48.4395 23.9623 48.2533 24.6247 47.7117C24.9103 47.4782 25.0064 47.3112 25.0066 47.0479C25.0068 46.7744 24.8817 46.528 24.6076 46.2625C24.3974 46.0588 23.9076 45.2575 23.4363 44.3464C23.2306 43.9489 23.2217 43.9162 23.2217 43.5623C23.2217 43.1839 23.2519 43.0995 23.4225 43.0019C23.5275 42.9418 23.7805 42.9686 23.8788 43.0502ZM16.0687 43.4268C16.1025 43.473 16.1395 43.561 16.1511 43.6224C16.2501 44.1464 16.3161 44.2696 16.5858 44.4343C17.218 44.8205 17.301 44.9206 17.4858 45.5201C17.5436 45.7072 17.6932 46.0381 17.8185 46.2552C18.2151 46.943 18.2062 47.3932 17.7893 47.7197C17.5789 47.8845 17.591 47.8818 16.456 48.019C15.3028 48.1585 15.1066 48.1326 14.8593 47.8082C14.7495 47.6641 14.6328 47.1671 14.6799 47.0442C14.692 47.0126 14.7167 46.3454 14.7348 45.5614C14.7673 44.1531 14.7691 44.1329 14.8837 43.8856C15.0035 43.6272 15.2151 43.4255 15.4428 43.3529C15.6453 43.2883 15.9979 43.3299 16.0687 43.4268ZM29.183 47.6523C29.37 47.8565 29.4457 48.1111 29.4464 48.5387C29.447 48.8431 29.4298 48.9116 29.2789 49.2085C29.0641 49.6313 28.7023 50.1143 28.4947 50.2554C28.1347 50.5003 27.8466 50.3388 27.6551 49.7849C27.4548 49.2053 27.4686 48.3771 27.6857 47.9512C27.8486 47.6317 28.259 47.4534 28.7729 47.4787C29.0103 47.4905 29.0503 47.5074 29.183 47.6523ZM27.0818 51.0297C27.4003 51.1823 27.5563 51.3379 27.6869 51.6334C27.8857 52.0834 27.7735 52.6596 27.4067 53.0724C27.3221 53.1677 26.934 53.6375 26.5444 54.1165C25.7213 55.1281 24.3197 56.5733 24.0538 56.6844C23.9503 56.7276 23.8311 56.7451 23.7544 56.7282C23.611 56.6967 23.3988 56.4752 23.2699 56.2222C23.1849 56.0555 23.1848 56.0494 23.2688 55.7949C23.4045 55.3833 23.71 54.8097 23.9671 54.4841C24.2686 54.1021 24.5833 53.8475 25.0067 53.6427C25.7129 53.3012 25.798 53.1629 25.8582 52.2576C25.903 51.5846 25.9208 51.4862 26.0421 51.244C26.1394 51.0496 26.4021 50.9038 26.6579 50.9023C26.7438 50.9018 26.9346 50.9591 27.0818 51.0297ZM30.5914 55.139C30.6506 55.1857 30.7741 55.3715 30.8658 55.5521C31.0406 55.8962 31.3584 56.339 31.9668 57.0861C32.1668 57.3317 32.6134 57.9546 32.9593 58.4704C33.3052 58.9862 33.7459 59.6213 33.9385 59.8819C34.2882 60.3548 34.5572 60.8697 34.8899 61.7035C35.1075 62.2487 35.099 62.4752 34.8467 62.8558C34.6016 63.2255 34.2153 63.616 34.0362 63.6752C33.9017 63.7196 33.854 63.7116 33.646 63.6098C33.3721 63.4757 33.0733 63.1554 32.4851 62.3656C32.043 61.7719 31.8519 61.6007 31.6311 61.6007C31.4399 61.6007 31.3471 61.6866 31.0307 62.1563C30.6881 62.6649 30.3422 63.0918 30.1933 63.1901C29.9116 63.376 29.6254 63.2398 29.4025 62.8136L29.2789 62.5775L29.4147 62.3081C29.5656 62.0091 30.0034 61.5656 30.4418 61.2677C30.7894 61.0315 30.9255 60.8629 31.0137 60.5595C31.1501 60.09 31.0187 59.7105 30.5976 59.3576C29.7496 58.647 28.9661 57.9255 28.847 57.7456C28.5849 57.3496 28.5637 56.9802 28.7785 56.5502C28.9393 56.2282 29.5947 55.4127 29.804 55.2741C30.147 55.047 30.4159 55.0009 30.5914 55.139ZM26.5686 56.7957L26.6595 56.9741L26.5414 57.2087C26.3582 57.5726 26.2621 57.6889 26.1447 57.6889C26.0069 57.6889 25.9735 57.5755 26.033 57.31C26.0958 57.0297 26.1937 56.8397 26.3382 56.7179C26.4036 56.6627 26.4617 56.6175 26.4673 56.6174C26.473 56.6173 26.5185 56.6975 26.5686 56.7957ZM34.6283 57.0214C34.7537 57.0642 34.9344 57.1487 35.03 57.2092C35.2359 57.3396 36.5877 58.6082 37.1885 59.235C37.4211 59.4776 37.976 60.0486 38.4217 60.5038C38.8674 60.959 39.2745 61.4011 39.3263 61.4862C39.3907 61.5919 39.4206 61.7156 39.4207 61.8768C39.4211 62.4754 39.1399 62.6902 37.9746 62.9815C37.7115 63.0473 37.6296 63.0506 37.4168 63.0042C37.1029 62.9358 36.8246 62.7771 36.6754 62.5814C36.6119 62.498 36.4994 62.2724 36.4255 62.08C36.3516 61.8877 36.205 61.5594 36.0996 61.3507C35.9943 61.1419 35.8531 60.8304 35.7859 60.6585C35.7187 60.4866 35.593 60.2053 35.5066 60.0333C35.3586 59.7386 34.5555 58.5208 34.2845 58.1801C33.7973 57.5676 33.7028 57.0938 34.039 56.95C34.1854 56.8874 34.2628 56.8967 34.6283 57.0214ZM65.2592 63.5835C65.1979 63.6031 64.9669 63.6216 64.746 63.6245C63.8542 63.6364 63.0781 63.8032 62.1277 64.1873C61.8497 64.2996 61.4114 64.4743 61.1537 64.5755C60.8959 64.6767 60.6191 64.8164 60.5384 64.886C60.1891 65.1875 59.7612 65.3298 58.8777 65.4387C58.3333 65.5057 57.5081 65.6598 57.0886 65.7727C56.8444 65.8385 56.7948 65.926 56.7681 66.3385C56.7402 66.7706 56.634 67.0292 56.2958 67.4893C56.17 67.6605 56.034 67.9016 55.9935 68.0252C55.8729 68.3941 55.7025 68.6983 55.1334 69.5612C54.1276 71.0863 54.0065 71.5321 53.9913 73.7649C53.9863 74.4992 53.9744 74.6233 53.8846 74.8813C53.743 75.2875 53.7739 75.5034 54.0597 76.1064C54.3234 76.6629 54.371 76.7873 54.5549 77.3998C54.6956 77.8683 54.7606 77.98 55.3242 78.7217C55.5202 78.9796 55.8441 79.4418 56.0441 79.7488C56.7748 80.8706 57.4427 81.538 59.0159 82.7184C60.0707 83.5098 60.9011 83.8553 62.0239 83.9699C62.3783 84.006 63.3947 84.206 63.6091 84.2817C63.7026 84.3147 63.8762 84.356 63.9948 84.3735C64.7991 84.4919 65.6829 84.9669 66.4325 85.6835C66.8742 86.1057 67.0464 86.3423 67.3214 86.9041C67.6937 87.6647 68.1888 88.0732 68.6366 87.9891C68.9532 87.9297 69.2004 87.595 69.4785 86.849C69.5875 86.5566 69.6038 86.4485 69.6068 85.9983C69.6102 85.4862 69.609 85.48 69.4369 85.1315C69.3181 84.8909 69.1772 84.6948 68.9893 84.5085C68.615 84.1374 68.5174 83.9865 68.4873 83.732C68.4514 83.4284 68.5742 83.1746 68.9506 82.7748C69.1185 82.5964 69.2982 82.3901 69.3499 82.3165C69.4608 82.1585 69.7401 81.4037 70.1996 80.0203C70.5726 78.8973 70.579 78.8233 70.3248 78.5689C70.0711 78.3151 69.6211 78.2771 69.3694 78.4884C69.2748 78.5678 68.9482 79.1206 68.7171 79.5925C68.6136 79.8038 68.4231 80.0225 67.8151 80.6276C67.3199 81.1204 67.0443 81.4273 67.0443 81.4858C67.0443 81.5436 67.1297 81.6406 67.2785 81.7517C67.4074 81.8478 67.5715 81.9888 67.6431 82.0648C67.7565 82.1853 67.7669 82.2173 67.7237 82.3123C67.6579 82.4568 67.3689 82.6209 66.9424 82.756C66.7262 82.8246 66.5034 82.9353 66.3521 83.0497C66.0688 83.2637 65.936 83.3212 65.7249 83.3212C65.5453 83.3212 65.3931 83.1918 65.3931 83.039C65.3931 82.982 65.4605 82.8564 65.5429 82.7599C65.9501 82.283 65.7698 82.0926 64.7584 81.931C64.4325 81.8789 64.0632 81.7982 63.9376 81.7517C63.7144 81.6689 63.3651 81.3708 63.3182 81.2232C63.3058 81.1838 63.1902 81.0997 63.0613 81.0363C62.9325 80.9729 62.7033 80.8276 62.552 80.7135C62.2494 80.4853 61.4071 79.6438 61.0947 79.2576C60.8537 78.9595 60.2739 78.0912 60.2184 77.9452C60.1745 77.8296 60.3326 76.9338 60.4588 76.5831C60.578 76.252 60.7027 76.0873 61.321 75.4451C61.9825 74.7579 62.279 74.4033 62.6237 73.8868C62.9269 73.4324 63.0172 73.2205 63.1668 72.6123C63.2903 72.1101 63.5199 71.5845 63.7811 71.2057C63.9686 70.934 64.3814 70.5565 64.7907 70.2829C65.6337 69.7192 66.9928 68.725 67.1811 68.5343C67.5238 68.1871 68.2886 67.0736 68.3656 66.8098C68.4714 66.4471 68.3912 66.2454 67.7751 65.3243C66.8069 63.8772 66.746 63.8233 65.8617 63.629C65.4209 63.5321 65.4197 63.5321 65.2592 63.5835ZM34.9889 64.5034C35.2348 64.645 35.2705 64.7007 35.8011 65.7716C36.1694 66.515 36.2788 66.7835 36.3836 67.2006C36.4545 67.483 36.5862 67.8849 36.6763 68.0937C36.878 68.5612 37.2788 69.6539 37.2788 69.7363C37.2788 69.889 36.982 70.4965 36.8344 70.6459C36.5174 70.9667 36.0855 70.9673 35.7966 70.6473C35.6426 70.4767 35.5006 70.1625 34.7403 68.3096C34.5421 67.8266 34.2495 67.1594 34.0901 66.827C33.7426 66.1019 33.6943 65.927 33.7151 65.4689C33.728 65.1863 33.7572 65.0669 33.865 64.8573C34.1228 64.3558 34.5166 64.2318 34.9889 64.5034ZM65.5984 64.9443C65.6604 64.9849 65.7518 65.1123 65.8014 65.2274C65.9911 65.667 66.4276 67.0553 66.4508 67.2927C66.4877 67.6715 66.4144 67.7716 65.8145 68.1613C65.1473 68.5948 65.1197 68.6081 64.6072 68.7414C63.9041 68.9241 63.5447 69.214 63.268 69.8215C63.185 70.0039 62.9799 70.368 62.8123 70.6305C62.6446 70.8931 62.4918 71.1348 62.4725 71.1678C62.4533 71.2007 62.3714 71.4178 62.2905 71.6502C62.093 72.2177 61.9397 72.4571 61.3135 73.1764C60.2414 74.4079 59.7851 75.0319 59.3974 75.7968C58.9659 76.6481 58.9646 77.0217 59.3898 77.8732C59.4941 78.082 59.605 78.3633 59.6362 78.4984C59.7042 78.7917 59.7849 78.9581 60.0518 79.3551C60.4003 79.8734 60.5315 80.3769 60.3658 80.5602C60.2289 80.7115 60.0389 80.6634 59.61 80.3688C59.0853 80.0083 58.8762 79.8034 58.5672 79.3469C58.2082 78.8165 57.8779 78.504 57.2917 78.14C56.7663 77.8138 56.6375 77.694 56.4367 77.3446C56.3709 77.2301 56.2032 76.9556 56.064 76.7345C55.6778 76.1212 55.5407 75.8186 55.4577 75.3961C55.3863 75.0324 55.3863 74.9757 55.4578 74.4298C55.4995 74.1108 55.5442 73.4539 55.557 72.9701C55.5947 71.5487 55.637 71.3935 56.2227 70.5274C57.0637 69.2837 58.0289 67.6447 58.0302 67.4578C58.0311 67.3518 58.2923 66.945 58.44 66.8199C58.6396 66.6508 59.0325 66.4808 59.5694 66.3313C59.8149 66.263 60.191 66.1192 60.4053 66.0116C60.8525 65.7873 61.0335 65.7681 61.3554 65.9105C61.6434 66.038 61.8489 66.0047 62.1902 65.7754C62.6699 65.4531 62.9037 65.5537 63.1433 66.1856C63.2106 66.3631 63.2935 66.5516 63.3275 66.6044C63.4424 66.7828 63.7909 66.8673 64.1256 66.7978C64.5459 66.7105 64.6768 66.4561 64.7712 65.5437C64.8159 65.1114 64.8845 64.9471 65.0498 64.8766C65.1827 64.82 65.4612 64.8543 65.5984 64.9443ZM14.9436 68.6244C14.712 68.6852 14.4592 68.8364 14.0705 69.1465C13.5667 69.5485 13.2943 69.6721 12.8662 69.6933C12.5911 69.7068 12.4682 69.6888 12.1969 69.5952C11.5583 69.3748 11.0129 69.3936 10.8171 69.6427C10.6537 69.8505 10.6266 70.053 10.7329 70.2726C10.8221 70.4571 10.8601 70.483 11.5018 70.7939C12.375 71.2172 12.6548 71.332 12.9716 71.3971C13.2249 71.449 13.238 71.4468 13.5517 71.2965C13.8557 71.151 14.9525 70.3962 15.5968 69.8894C15.8789 69.6675 15.9982 69.5027 16.0562 69.2547C16.0928 69.0984 15.9179 68.8129 15.7246 68.7132C15.5433 68.6198 15.1371 68.5735 14.9436 68.6244ZM58.2753 70.9142C58.0066 71.0622 57.5822 71.604 57.4065 72.0234C57.2672 72.3557 57.2384 72.9045 57.3338 73.4077C57.4977 74.2725 57.5472 74.4411 57.6824 74.5952C57.8483 74.7841 58.1049 74.863 58.3213 74.7915C58.532 74.722 58.8496 74.3523 59.0411 73.9539C59.1917 73.6406 59.2014 73.5942 59.196 73.2123C59.1902 72.7994 59.2917 71.8939 59.3726 71.6378C59.4103 71.5181 59.3983 71.4665 59.2893 71.2806C59.1103 70.9754 58.9268 70.862 58.6145 70.8636C58.477 70.8644 58.3244 70.8871 58.2753 70.9142ZM25.0586 71.3061C24.9276 71.3546 24.6866 71.4688 24.5231 71.56C23.9421 71.8837 23.8865 71.9034 23.5564 71.9028C23.2979 71.9023 23.1593 71.8699 22.7531 71.7146C22.0614 71.4503 21.7997 71.4629 21.6129 71.7694C21.5531 71.8677 21.5262 71.9931 21.5261 72.1748C21.5259 72.4099 21.5437 72.4613 21.6933 72.6587C22.2311 73.3685 23.1558 73.6665 23.8242 73.3453C25.6468 72.4693 25.7025 72.4396 25.8449 72.2666C26.0909 71.968 26.0786 71.6334 25.8124 71.3781C25.6404 71.2133 25.3775 71.1882 25.0586 71.3061ZM4.62318 73.0555C4.51849 73.1073 4.393 73.2005 4.34427 73.2624C4.23427 73.4024 4.22963 73.6562 4.33405 73.82C4.44222 73.9896 6.51848 75.5411 6.71015 75.5956C7.08916 75.7032 7.37499 75.638 7.77113 75.3531C8.14072 75.0874 8.42825 75.0078 9.16457 74.9671C9.80977 74.9315 10.3719 74.8397 10.5842 74.7354C11.0039 74.5291 11.004 73.7097 10.5845 73.4537C10.3042 73.2827 9.9287 73.3259 8.76294 73.6634C7.49115 74.0315 6.80579 73.9613 6.28621 73.4096C6.21257 73.3314 6.08655 73.2267 6.00618 73.1769C5.64252 72.9517 4.95466 72.8913 4.62318 73.0555ZM33.8979 75.9128C34.0673 76.1169 34.0845 76.3339 33.9827 76.9801C33.8469 77.8422 33.8221 78.3943 33.8861 79.1323C33.9499 79.8686 33.9126 80.2431 33.7301 80.6986C33.5135 81.2389 33.0948 81.5718 32.4999 81.6767C32.2443 81.7217 32.1962 81.7133 31.3088 81.468C29.9705 81.0981 29.8203 81.0486 29.6542 80.9224C29.3575 80.6971 29.32 80.3642 29.5525 80.0187C29.6172 79.9226 30.0234 79.4759 30.4552 79.0261C31.3496 78.0943 31.672 77.7302 32.4644 76.7564C33.1091 75.9643 33.1511 75.9222 33.3823 75.8374C33.593 75.7601 33.7958 75.7897 33.8979 75.9128ZM45.5569 78.4266C45.2886 78.5111 45.1916 78.5712 44.7537 78.9238C44.2837 79.3023 43.5892 79.7664 43.3033 79.8931C43.0013 80.0269 42.5828 80.0165 42.2564 79.867C41.9618 79.732 41.6516 79.7111 41.5438 79.8189C41.4419 79.9209 41.4576 80.1219 41.5874 80.3783C41.9174 81.0298 42.9041 81.5098 43.5053 81.3113C43.6259 81.2715 43.8721 81.0632 44.3485 80.5978C45.0789 79.8844 45.3236 79.7044 45.8693 79.4792C46.4829 79.2259 46.7492 78.8574 46.5374 78.5547C46.4116 78.375 45.9235 78.3112 45.5569 78.4266ZM35.8817 83.3946C36.1141 83.5139 36.3829 83.6784 36.4791 83.7601C36.6254 83.8843 36.6541 83.9363 36.6541 84.0769C36.6541 84.3679 36.467 84.4593 35.5642 84.6095C34.9016 84.7198 34.1563 84.6868 33.9475 84.5381C33.7991 84.4322 33.6641 84.1942 33.6641 84.0379C33.6641 83.8554 33.7964 83.6875 34.0826 83.5067C34.7743 83.0695 35.1971 83.0431 35.8817 83.3946Z" fill="black"/>
</svg>
