<svg width="195" height="30" viewBox="0 0 195 30" fill="none" xmlns="http://www.w3.org/2000/svg">
<path d="M49.4208 3.5175C50.3612 1.91958 51.9464 0.790042 53.8225 0.380847C54.5427 0.223706 56.408 0.218965 57.2011 0.372212C60.0315 0.919075 61.8044 2.3899 62.2682 4.57617C62.3779 5.09357 62.3838 5.30312 62.3021 5.78674C62.1811 6.50293 62.0479 6.82966 61.6225 7.45264C60.6791 8.83457 58.9312 9.54061 57.8811 8.96403C57.2285 8.60572 56.9092 7.8438 57.2291 7.4087C57.3311 7.26993 57.3733 7.26595 57.6573 7.36806C57.9389 7.46941 58.0046 7.46399 58.2795 7.31675C58.9958 6.93304 59.2215 5.9962 58.8105 5.11313C58.5239 4.49735 57.6797 3.70724 56.9295 3.35257C56.1009 2.9609 55.5123 2.84406 54.5883 2.888C53.9765 2.91713 53.73 2.97063 53.3456 3.15766C52.0159 3.80477 51.5904 5.22802 52.2479 6.82949C52.7756 8.11457 53.7526 9.43969 55.7924 11.6365C58.1401 14.1652 59.0294 15.5162 59.277 16.9304C59.3857 17.5514 59.3867 17.739 59.2841 18.3251C58.8851 20.6072 56.7931 22.5115 53.7537 23.3594C51.9783 23.8548 49.4679 23.82 47.7162 23.2759C45.3049 22.5269 43.5613 20.8469 43.2422 18.9653C42.9917 17.4885 43.8307 15.7354 45.1459 14.9869C45.9482 14.5304 46.9665 14.3625 47.7019 14.5656C48.1367 14.6856 48.7582 15.2772 48.8275 15.637C48.8795 15.907 48.8746 15.9122 48.5693 15.9122C47.931 15.9122 47.3066 16.3229 46.9601 16.9705C46.697 17.4622 46.7091 18.3478 46.9866 18.9143C47.3204 19.5956 48.0503 20.2499 48.962 20.685C49.9314 21.1477 50.7301 21.3309 51.7778 21.3309C53.1743 21.3309 54.4416 20.8916 55.0352 20.2018C55.5649 19.5862 55.7011 18.8408 55.4452 17.9572C55.1049 16.7826 54.4749 15.8861 52.5202 13.7955C50.9369 12.1022 50.2101 11.1135 49.5881 9.80765C49.0129 8.59988 48.753 7.53485 48.7428 6.34486C48.7324 5.12143 48.9082 4.38838 49.4208 3.5175Z" fill="white"/>
<path d="M76.9553 9.3391C76.2797 8.4849 77.7447 5.97538 79.2259 5.44968C79.7102 5.27772 79.9174 5.30498 80.1902 5.57634C80.4841 5.8687 80.5185 6.2756 80.3025 6.90823C79.7092 8.64644 77.6119 10.1695 76.9553 9.3391Z" fill="white"/>
<path d="M107.531 6.47626C107.892 6.04861 108.499 5.60589 108.95 5.44045C109.27 5.32327 109.672 5.35299 109.86 5.50785C109.922 5.55915 110.01 5.73492 110.056 5.89833C110.412 7.18247 108.538 9.5622 107.17 9.5622C106.844 9.5622 106.688 9.44773 106.488 9.06385C106.249 8.60606 106.722 7.43274 107.531 6.47626Z" fill="white"/>
<path fill-rule="evenodd" clip-rule="evenodd" d="M152.962 0.380255C148.377 1.08976 144.837 3.31497 144.059 5.97656C143.861 6.65542 143.926 7.76447 144.197 8.33453C144.761 9.51758 146.691 10.7073 147.21 10.1912C147.397 10.0058 147.38 9.92178 147.093 9.59683C146.77 9.23073 146.664 8.83398 146.664 7.99586C146.666 5.98435 147.905 4.30414 150.224 3.1702C151.722 2.43749 153.908 2.05048 155.388 2.25579L155.899 2.32666L155.251 2.68421C152.987 3.93313 151.114 5.93651 149.781 8.53409C149.526 9.02973 148.97 10.2639 148.544 11.2767C146.302 16.6094 145.996 17.3493 145.567 18.0096C145.481 18.1431 145.389 18.2734 145.275 18.4376C144.145 20.0687 142.517 20.8743 141.518 20.2971C141.14 20.0787 140.868 19.6742 140.794 19.2223C140.754 18.9704 140.706 18.9133 140.517 18.8916C140.111 18.8447 139.981 19.1783 139.981 20.2687C139.981 21.0717 140.008 21.2533 140.169 21.5539C140.721 22.5794 141.87 23.0945 143.386 22.9959C144.624 22.9154 145.632 22.5125 146.692 21.6751C148.197 20.4852 149.033 19.1698 150.354 15.9122C151.241 13.7226 151.498 13.1071 151.538 13.0673C151.61 12.995 152.172 13.243 152.628 13.5484C153.245 13.962 153.916 14.6972 154.185 15.256C154.559 16.0299 154.616 16.824 154.451 18.9384C154.238 21.6668 154.383 22.2797 155.384 22.8952C155.764 23.1288 155.865 23.151 156.53 23.1488C157.198 23.1467 157.317 23.1194 157.921 22.8279C159.031 22.292 160.223 21.0227 160.467 20.1167C160.549 19.8099 160.548 19.7092 160.458 19.6017C160.292 19.4029 160.23 19.4294 159.78 19.8914C159.13 20.5583 158.396 20.7545 157.862 20.4041C157.263 20.0112 157.247 19.4805 157.779 17.6426C158.406 15.4737 158.384 14.4608 157.692 13.6563C157.535 13.4734 157.268 13.2499 157.099 13.1594C156.93 13.069 156.792 12.9699 156.792 12.939C156.792 12.9082 156.928 12.8577 157.094 12.8267C158.061 12.6464 160.023 11.8054 160.974 11.164C163.219 9.65059 164.221 7.31091 163.574 5.09196C162.873 2.68455 160.42 0.924577 157.002 0.377545C156.026 0.22125 153.981 0.222606 152.962 0.380255ZM160.212 7.00086C160.458 5.52791 159.685 3.99028 158.287 3.1702C158.009 3.00704 157.733 2.87352 157.675 2.87352C157.511 2.87352 156.337 3.84321 155.85 4.38135C155.171 5.13201 154.618 5.9962 153.954 7.34622C153.306 8.66405 152.478 10.6333 152.544 10.699C152.566 10.7206 153.017 10.7833 153.546 10.8384C157.013 11.1995 159.778 9.60766 160.212 7.00086Z" fill="white"/>
<path fill-rule="evenodd" clip-rule="evenodd" d="M187.507 5.66753C189.637 2.81036 191.708 0.839911 193.218 0.234205C194.014 -0.0849043 194.713 0.155634 194.935 0.824671C195.072 1.23911 194.982 2.51005 194.757 3.33919C194.037 5.98503 192.376 9.10898 190.254 11.8059C189.17 13.1846 187.035 15.1502 186.622 15.1502C186.389 15.1502 186.244 14.93 186.244 14.5757C186.244 14.0636 186.414 13.8163 187.21 13.1733C188.498 12.1321 189.378 11.1135 190.694 9.1398C192.076 7.06648 193.139 4.58379 193.168 3.364C193.192 2.36146 192.867 2.31015 192.015 3.18146C190.738 4.48744 189.144 7.00518 187.52 10.2819C185.057 15.2529 183.924 19.1141 184.535 20.4527C184.663 20.7347 184.769 20.8308 185.084 20.9501C185.416 21.0763 185.533 21.0834 185.88 20.9982C186.958 20.7332 188.455 19.2565 189.426 17.4997C189.719 16.9707 189.763 16.9282 190.027 16.9282C190.224 16.9282 190.394 17.0042 190.576 17.1738C190.937 17.5089 190.932 17.9426 190.559 18.7933C190.177 19.6633 189.764 20.258 189.068 20.9417C187.602 22.3807 185.803 23.1265 184.111 22.9967C182.719 22.8899 182.003 22.299 181.595 20.9197C181.571 20.8407 181.452 20.9028 181.213 21.1172C180.364 21.8805 179.118 22.4906 177.832 22.7734C176.891 22.9804 175.296 22.9965 174.558 22.8063C173.491 22.5313 172.622 21.9081 172.229 21.1364L172.019 20.7234L171.577 21.1367C170.333 22.301 168.564 22.9341 166.544 22.9377C165.278 22.94 164.415 22.7322 163.69 22.2505C162.958 21.7647 162.541 21.1487 162.325 20.2383C162.178 19.6171 162.261 18.3195 162.496 17.5632C163.364 14.7739 166.034 11.955 168.601 11.1179C169.24 10.9096 169.483 10.8745 170.284 10.8745C171.075 10.8745 171.266 10.9015 171.518 11.0484C171.997 11.3283 172.199 11.7022 172.198 12.3052C172.196 13.5193 171.569 14.6932 170.202 16.0392C169.197 17.0294 168.155 17.7551 166.837 18.3839C166.251 18.6629 165.715 18.9213 165.645 18.9579C165.552 19.0066 165.519 19.1612 165.525 19.5319C165.54 20.5579 166.139 21.0381 167.39 21.0272C168.55 21.017 169.571 20.5376 170.619 19.5105C171.388 18.7568 171.797 18.1353 172.245 17.0432C173.219 14.6642 175.114 12.5654 177.253 11.4942C178.834 10.7025 180.721 10.6009 181.395 11.2712C182.087 11.9597 181.83 13.4448 180.76 14.9333C179.75 16.3392 177.664 17.9242 175.854 18.6612C175.035 18.9945 174.953 19.1218 175.106 19.8269C175.395 21.1675 177.026 21.4586 178.881 20.5009C180.141 19.8505 181.616 18.0413 181.935 16.7569C182.683 13.735 185.144 8.8383 187.507 5.66753ZM170.85 12.3935C170.96 12.6331 170.846 13.1963 170.584 13.7071C170.054 14.7406 168.384 16.166 166.465 17.2242C165.9 17.5356 165.883 17.5396 165.942 17.3431C166.03 17.0551 166.623 15.9889 167.138 15.1925C168.011 13.8441 169.057 12.7066 169.773 12.3285C169.914 12.2543 170.192 12.1921 170.392 12.1903C170.697 12.1874 170.771 12.2204 170.85 12.3935ZM180.144 13.7351C180.418 13.2175 180.533 12.5078 180.372 12.3154C180.191 12.099 179.605 12.1539 179.171 12.428C178.409 12.9083 177.449 14.0235 176.5 15.5308C175.948 16.4067 175.472 17.3336 175.54 17.4012C175.616 17.4761 176.367 17.0655 177.36 16.4065C178.447 15.6854 179.795 14.3918 180.144 13.7351Z" fill="white"/>
<path fill-rule="evenodd" clip-rule="evenodd" d="M7.23526 0.128286C6.13712 0.415137 4.89104 1.22049 4.26838 2.04574C2.94901 3.79444 2.83393 5.77421 3.98263 6.9587C4.56451 7.55864 4.88346 7.2767 4.59294 6.41895C4.46569 6.04328 4.43173 5.79783 4.47267 5.54874C4.62691 4.60894 5.2276 3.86844 6.07157 3.57778C6.63346 3.38423 7.96134 3.3833 8.85255 3.57575C10.2923 3.88665 12.4276 4.33005 13.066 4.45078C13.4406 4.52156 13.8332 4.59641 13.9385 4.61715C14.2678 4.68184 14.15 4.85261 13.5702 5.15081C13.2512 5.31489 12.7148 5.71494 12.3215 6.08214C10.6108 7.67938 9.59106 9.37161 7.49505 14.0919C6.87469 15.4889 6.23135 16.8795 6.06545 17.1822C5.13099 18.8866 3.90065 19.997 2.70088 20.2186C2.2248 20.3066 1.65824 20.2056 1.38994 19.9848C1.12487 19.7669 0.852153 19.2918 0.850195 19.0449C0.847642 18.7111 0.730683 18.5908 0.471661 18.6554C0.133561 18.7398 0 19.1451 0 20.087C0 20.807 0.024773 20.9297 0.266941 21.4119C0.562225 21.9996 0.997706 22.3702 1.68514 22.6185C2.2197 22.8117 3.6613 22.8194 4.42083 22.6332C6.13321 22.2135 7.72547 21.033 8.70496 19.457C8.91819 19.114 9.73092 17.3498 10.511 15.5368C11.2913 13.7237 12.0305 12.0092 12.154 11.7268C12.5384 10.8472 13.9093 8.19424 14.3007 7.57253C15.095 6.311 15.8561 5.48558 16.6543 5.02033C16.9662 4.83855 18.4346 4.49184 18.5104 4.5821C18.5298 4.60521 17.9656 5.84253 16.3743 9.26587C16.2012 9.6384 15.8408 10.4194 15.5735 11.0015C15.148 11.928 13.5698 15.3415 12.8332 16.9282C12.6928 17.2309 12.1646 18.3739 11.6597 19.4682C11.1547 20.5625 10.6396 21.6765 10.5149 21.9436C10.3902 22.2107 10.3121 22.4679 10.3415 22.5151C10.3738 22.5672 10.9228 22.6009 11.7385 22.6009C12.9321 22.6009 13.098 22.5836 13.2231 22.446C13.3005 22.3609 13.3639 22.2699 13.3639 22.2439C13.3639 22.2179 13.56 21.7827 13.7996 21.2769C14.0392 20.7711 14.3415 20.1286 14.4713 19.8492C16.0456 16.4601 16.2848 16.0012 17.1393 14.7305C17.708 13.8848 18.1408 13.4316 18.5589 13.2441C19.2627 12.9284 19.5622 13.2979 19.4035 14.2863C19.2992 14.9357 19.0675 15.5543 18.4301 16.8859C17.654 18.5069 17.5613 18.7178 17.3728 19.2917C17.0141 20.3837 17.2203 21.4443 17.9153 22.0815C18.5023 22.6197 18.7958 22.7144 19.8757 22.7141C20.6661 22.7138 20.9093 22.6795 21.4364 22.494C22.1888 22.2291 22.8091 21.8656 23.5466 21.2575C23.8496 21.0075 24.1081 20.817 24.1208 20.8341C24.1336 20.8512 24.2444 21.0399 24.3672 21.2533C24.7959 21.9986 25.587 22.5399 26.6488 22.8147C27.4166 23.0133 29.3061 22.9511 30.2604 22.6957C32.3387 22.1396 33.9329 20.8496 34.957 18.8952C35.2762 18.2863 35.3265 17.7634 35.1067 17.3407C34.9444 17.0287 34.4602 16.7996 34.2262 16.9241C34.1388 16.9706 33.8274 17.4001 33.5341 17.8786C32.8091 19.0611 31.7106 20.1534 30.8137 20.5838C29.9538 20.9964 29.1922 21.1375 28.5085 21.011C27.564 20.8363 27.1222 20.3074 27.1708 19.4097L27.1961 18.9418L27.7093 18.7502C29.8561 17.949 32.3059 15.9797 33.2646 14.2842C33.8316 13.2814 34.004 12.0911 33.6652 11.5178C33.368 11.0148 32.9638 10.8738 31.8351 10.8794C30.9936 10.8834 30.7679 10.916 30.226 11.1116C27.5867 12.064 25.0908 14.6795 24.176 17.4512C23.8747 18.3642 22.8072 19.6707 22.0463 20.0579C21.4162 20.3786 20.71 20.3404 20.5134 19.975C20.249 19.4836 20.4913 18.6042 21.516 16.3355C22.5377 14.0731 22.7191 13.2929 22.4428 12.3476C22.1503 11.3468 21.4248 10.8631 20.3234 10.9346C19.6204 10.9803 19.161 11.1751 18.535 11.6931C18.3127 11.8771 18.1307 12.0128 18.1307 11.9947C18.1307 11.967 18.6431 10.8451 19.5316 8.9272C21.4135 4.86522 22.2128 3.10915 22.306 2.83119C22.3785 2.61504 22.6573 2.24741 23.0766 1.81519C23.8416 1.02635 24.1743 0.560173 24.1743 0.276709C24.1743 -0.0473111 23.9531 -0.0476498 23.2542 0.275608C21.692 0.99807 19.5759 1.43419 17.6328 1.43419C16.2426 1.4341 15.2375 1.29229 13.1511 0.801559C9.89639 0.0359167 9.66477 -0.00540105 8.66163 0.000440962C8.11805 0.00357363 7.50084 0.058944 7.23526 0.128286ZM32.2476 13.6338C32.5294 13.0643 32.6023 12.4758 32.414 12.2885C32.2256 12.1011 31.6405 12.1696 31.2347 12.4264C30.6568 12.7922 29.5965 13.9691 28.9026 15.0147C28.2682 15.9705 27.5304 17.3313 27.6058 17.4063C27.6762 17.4763 28.4519 17.049 29.4205 16.4065C30.6331 15.6022 31.8775 14.3817 32.2476 13.6338Z" fill="white"/>
<path fill-rule="evenodd" clip-rule="evenodd" d="M65.0876 10.6847C64.9797 10.7921 64.6115 11.4312 64.2694 12.1049C63.9274 12.7786 63.313 13.9776 62.9043 14.7692C62.4954 15.5608 61.6907 17.1229 61.1161 18.2405C60.5414 19.3581 59.7563 20.8821 59.3713 21.6272C56.0379 28.0793 55.7317 28.7077 55.8234 28.9081C56.0433 29.388 57.2151 29.2516 58.1482 28.6374C58.4893 28.4129 58.7609 28.013 59.4306 26.7496C60.8736 24.0268 62.0773 21.8389 62.1322 21.8389C62.1677 21.8389 62.2639 21.9126 62.3459 22.0027C62.8484 22.5551 64.1373 22.6905 65.1791 22.3004C65.4961 22.1817 65.7904 22.05 65.8329 22.0076C65.8795 21.9613 66.0381 22.0312 66.2299 22.1823C66.6802 22.537 67.0959 22.6904 67.7462 22.7419C68.802 22.8253 70.2375 22.3636 71.2729 21.6076C71.5621 21.3965 71.7137 21.3294 71.738 21.402C71.8362 21.695 72.3603 22.2308 72.7782 22.4652C73.2327 22.7203 73.2762 22.7276 74.2678 22.7203C75.2657 22.7127 75.4579 22.675 76.366 22.3074C76.4679 22.2662 76.503 22.293 76.4937 22.4045C76.4819 22.5475 76.5782 22.5586 77.8429 22.5586H79.2048L79.4176 22.1348C79.5347 21.9017 79.7622 21.4255 79.9234 21.0765C80.0846 20.7275 80.4389 19.9718 80.7107 19.3973C80.9827 18.8227 81.2051 18.3368 81.2051 18.3175C81.2051 18.2982 81.4694 17.7397 81.7924 17.0761C82.9876 14.621 84.2389 13.1182 85.0879 13.1182C85.4666 13.1182 85.6314 13.3697 85.6314 13.9476C85.6314 14.5796 85.3507 15.3437 84.3983 17.3035C83.5436 19.0623 83.3332 19.659 83.3332 20.3229C83.3332 21.272 83.8882 22.1569 84.7131 22.5231C85.0881 22.6894 85.3054 22.723 86.0145 22.7239C86.8168 22.7249 87.2289 22.6425 88.1127 22.3043C88.2135 22.2658 88.2496 22.2941 88.2404 22.4045C88.2286 22.5464 88.331 22.5604 89.5378 22.582C90.6674 22.6022 90.8697 22.5858 91.0061 22.463C91.0931 22.3847 91.1643 22.2907 91.1643 22.2541C91.1643 22.2175 91.3216 21.8519 91.5139 21.4417C91.7063 21.0315 91.9603 20.4863 92.0784 20.2302C92.1964 19.9741 92.4261 19.4788 92.5887 19.1295C92.7513 18.7803 92.9985 18.2469 93.1379 17.9442C94.5803 14.813 95.8973 13.1182 96.8883 13.1182C97.2295 13.1182 97.3781 13.3647 97.3774 13.9292C97.3765 14.6375 97.1717 15.2146 96.2509 17.1052C95.2312 19.1986 95.1279 19.499 95.1322 20.3572C95.1357 21.0832 95.273 21.4665 95.7181 21.9926C96.6423 23.0852 99.0712 22.9694 100.822 21.7491C101.086 21.5657 101.331 21.4156 101.368 21.4156C101.405 21.4156 101.489 21.5154 101.555 21.6375C101.76 22.0199 102.371 22.4838 102.876 22.642C103.685 22.895 104.86 22.7711 106.073 22.3046C106.174 22.2658 106.21 22.294 106.201 22.4045C106.189 22.5475 106.285 22.5586 107.55 22.5586H108.912L109.168 22.0506C109.309 21.7712 109.574 21.2187 109.756 20.8229C112.012 15.9251 112.276 15.4263 113.258 14.2096C114.016 13.27 114.835 12.8745 115.198 13.2731C115.394 13.4885 115.382 14.3145 115.173 14.9457C115.082 15.2212 114.644 16.1958 114.2 17.1116C113.158 19.2593 113.097 19.4347 113.09 20.3149C113.082 21.1152 113.244 21.5503 113.74 22.0661C114.195 22.5398 114.747 22.7228 115.722 22.7231C116.741 22.7235 117.481 22.515 118.426 21.9622L119.041 21.6024L119.158 21.8264C119.339 22.1739 119.611 22.4423 119.911 22.5695C120.263 22.7184 121.06 22.7168 121.559 22.5661C122.143 22.3898 123.079 21.8982 123.578 21.5059C123.821 21.3143 124.021 21.177 124.021 21.2005C124.021 21.2241 123.88 21.5269 123.707 21.8734L123.394 22.5035L122.111 23.0308C118.889 24.3558 117.448 25.3417 116.865 26.6212C116.084 28.3353 116.769 29.6714 118.579 29.9612C119.517 30.1116 120.882 29.8156 121.946 29.2305C122.174 29.1052 122.621 28.7458 122.939 28.4319C123.446 27.9314 123.586 27.717 124.076 26.6915C124.97 24.8203 125.309 24.1016 125.438 23.8037C125.504 23.6503 125.605 23.5124 125.662 23.4972C125.719 23.4819 126.278 23.3065 126.904 23.1073C129.989 22.1261 131.596 20.8623 132.88 18.4059C133.275 17.6499 133.313 17.5288 133.276 17.1482C133.243 16.7987 133.184 16.6794 132.928 16.4466C132.723 16.2594 132.536 16.1662 132.365 16.1662C132.134 16.1662 132.081 16.223 131.809 16.7603C130.756 18.8396 129.865 19.8235 128.362 20.5643C127.623 20.9287 126.752 21.2829 126.71 21.2361C126.694 21.2184 127.022 20.4228 127.438 19.4682C127.855 18.5136 128.545 16.9324 128.971 15.9545C129.397 14.9766 129.813 14.0241 129.894 13.8379C130.702 11.9969 131.001 11.2693 131.001 11.1466C131.001 11.0169 130.88 11.0015 129.858 11.0015C128.737 11.0015 128.712 11.0056 128.546 11.2157L128.376 11.4298L128.149 11.2201C127.572 10.6883 126.154 10.7778 124.864 11.4277C123.388 12.171 121.505 14.0442 120.44 15.8275C120.012 16.5446 119.497 17.7138 119.296 18.4277C118.981 19.5479 117.693 20.4733 116.787 20.2306C116.397 20.1261 116.274 19.9499 116.276 19.495C116.278 18.9195 116.541 18.134 117.214 16.7006C118.095 14.8253 118.403 13.9009 118.403 13.137C118.403 11.82 117.629 11.0015 116.383 11.0015C115.464 11.0015 114.6 11.369 113.661 12.1598L113.217 12.5331L113.469 11.925C113.608 11.5906 113.721 11.3058 113.721 11.2923C113.721 11.2787 113.661 11.2078 113.588 11.1345C113.484 11.0316 113.264 11.0015 112.614 11.0015C112.152 11.0015 111.683 11.0361 111.571 11.0784C111.435 11.13 111.289 11.3315 111.127 11.6922C110.994 11.9876 110.681 12.6618 110.431 13.1904C110.181 13.7191 109.976 14.1628 109.976 14.1765C109.976 14.2262 109.023 16.2251 108.684 16.8859C107.831 18.5518 106.619 19.9396 105.81 20.1787C105.497 20.2709 105.308 20.2818 105.085 20.2203C104.358 20.0207 104.346 19.2798 105.042 17.7169C105.287 17.1667 105.601 16.4689 105.74 16.1662C105.879 15.8635 106.243 15.0634 106.549 14.3882C106.855 13.713 107.312 12.7067 107.566 12.1521C107.92 11.3758 108.001 11.1276 107.916 11.0738C107.731 10.9569 105.433 10.986 105.271 11.1074C105.15 11.1983 104.604 12.2774 103.676 14.2612C103.545 14.5406 103.164 15.3407 102.828 16.0392C102.493 16.7377 102.156 17.4426 102.08 17.6055C101.659 18.5133 100.527 19.8025 99.8891 20.1012C99.7019 20.189 99.3615 20.2612 99.1327 20.2618C98.779 20.2626 98.6852 20.2261 98.5052 20.0181C98.3144 19.7974 98.2988 19.7243 98.3463 19.2721C98.4026 18.7365 98.7354 17.8431 99.4875 16.2085C100.2 14.6609 100.364 14.1673 100.416 13.4145C100.47 12.6192 100.37 12.1769 100.027 11.7062C99.6549 11.1953 99.2716 11.0439 98.3503 11.0439C97.6136 11.0439 97.5443 11.0604 96.8607 11.399C96.4166 11.619 95.9673 11.9251 95.68 12.2034C95.4249 12.4504 95.2386 12.5954 95.2661 12.5255C95.2936 12.4557 95.4225 12.1359 95.5524 11.8148C95.7802 11.2522 95.783 11.2271 95.6308 11.1163C95.4478 10.9833 93.9362 10.9543 93.617 11.0777C93.4642 11.1368 93.2111 11.6077 92.4902 13.1732C90.9131 16.5986 90.5699 17.2773 89.9286 18.2405C88.8685 19.8324 87.9608 20.4665 87.0799 20.2306C86.6773 20.1228 86.5677 19.9515 86.5677 19.4299C86.5677 18.9392 86.802 18.2769 87.6273 16.4336C88.4548 14.5854 88.6043 14.1511 88.6659 13.4145C88.7897 11.9351 88.0199 11.0015 86.676 11.0015C85.7536 11.0015 84.8935 11.3687 83.9442 12.1677L83.4913 12.5489L83.6319 12.2197L83.667 12.1377C83.962 11.4472 84.0308 11.2862 83.9776 11.1988C83.9614 11.1722 83.934 11.1524 83.8982 11.1266L83.8842 11.1165C83.7178 10.9954 82.2886 10.9534 81.8957 11.0579C81.6977 11.1107 81.5211 11.4325 80.6952 13.2452C80.5891 13.478 80.3692 13.9543 80.2064 14.3035C80.0437 14.6528 79.8139 15.1481 79.696 15.4042C78.9903 16.9359 78.7894 17.3294 78.4313 17.8817C77.8005 18.8545 77.244 19.5052 76.7588 19.8376C76.1792 20.2346 75.8192 20.338 75.4035 20.2266C74.6174 20.0161 74.6273 19.2896 75.4402 17.5209C75.6994 16.9571 76.4306 15.3529 76.6944 14.7692C76.7997 14.5364 77.015 14.0669 77.1728 13.7259C77.3307 13.3848 77.4598 13.0931 77.4598 13.0775C77.4598 13.0619 77.6333 12.6798 77.8454 12.2284C77.8804 12.1538 77.9136 12.084 77.9446 12.0185C78.1754 11.5318 78.2911 11.2878 78.2134 11.1631C78.1353 11.0377 77.8614 11.033 77.312 11.0238C77.2386 11.0225 77.1603 11.0212 77.0768 11.0195C76.4214 11.0061 75.798 11.0166 75.6915 11.0429C75.5582 11.0756 75.4283 11.2417 75.275 11.5752C75.1524 11.8418 74.732 12.7222 74.3408 13.5318C73.9496 14.3413 73.6294 15.0178 73.6294 15.0351C73.6294 15.1352 72.4169 17.477 72.1451 17.9019C71.3381 19.1634 70.4908 19.9723 69.7413 20.1967C69.2756 20.336 68.8574 20.2452 68.6573 19.9611C68.5463 19.8034 68.5803 19.7308 69.0804 19.0581C69.9652 17.8679 70.6359 16.4717 71.039 14.9809C71.2415 14.232 71.2522 12.6039 71.0574 12.1869C70.8697 11.785 70.4238 11.3471 70.0118 11.1599C69.4837 10.92 68.5179 10.946 67.9353 11.2158C67.6826 11.3328 67.4719 11.4182 67.4671 11.4055C67.3633 11.1381 67.1909 11.035 66.5071 10.8317L66.4054 10.8014C65.5672 10.552 65.3644 10.4917 65.2308 10.5618C65.1881 10.5842 65.1525 10.6198 65.1056 10.6668L65.0876 10.6847ZM68.1246 15.9545C68.67 14.4986 68.7792 13.2815 68.3983 12.9027C68.1197 12.6255 67.6661 12.6295 67.092 12.914C66.4333 13.2405 66.1086 13.6812 65.2886 15.3619C64.8797 16.2001 64.1761 17.6186 63.725 18.5142L62.9049 20.1425L63.2416 20.3134C63.7276 20.56 64.4904 20.5456 65.0176 20.2799C66.1471 19.7106 67.3391 18.0513 68.1246 15.9545ZM127.315 12.3388C127.496 12.4531 127.576 12.8023 127.491 13.108C127.447 13.2676 127.248 13.7447 127.05 14.1682C126.852 14.5919 126.292 15.8069 125.806 16.8683C125.098 18.4154 124.85 18.8706 124.559 19.1648C124.135 19.5922 123.705 19.8153 123.196 19.8725C122.231 19.9807 121.835 19.3012 122.105 18.0007C122.594 15.6476 124.572 13.0054 126.306 12.3896C126.654 12.2659 127.16 12.2405 127.315 12.3388ZM120.055 27.9565C120.734 27.7154 121.127 27.2543 121.808 25.9023C122.14 25.2421 122.401 24.6745 122.387 24.6409C122.346 24.5447 121.083 25.0141 120.139 25.4763C118.771 26.1461 118.1 26.8888 118.266 27.549C118.395 28.0572 119.234 28.2483 120.055 27.9565Z" fill="white"/>
</svg>
